<svg xmlns="http://www.w3.org/2000/svg" viewBox="0 0 360 218.06"><defs><style>.cls-1,.cls-15,.cls-7{fill:#fff;}.cls-2{fill:#eee;}.cls-3{fill:#4f4f4f;}.cls-4{fill:#979797;}.cls-10,.cls-5{fill:#9c824a;}.cls-5{stroke:#9c824a;}.cls-12,.cls-14,.cls-15,.cls-5,.cls-6,.cls-7,.cls-8,.cls-9{stroke-miterlimit:282;}.cls-5,.cls-6,.cls-7,.cls-8,.cls-9{stroke-width:0.18px;}.cls-6{fill:#023474;stroke:#023474;}.cls-15,.cls-7{stroke:#fff;}.cls-11,.cls-8{fill:#ef0107;}.cls-12,.cls-8{stroke:#ef0107;}.cls-13,.cls-9{fill:#db0007;}.cls-14,.cls-9{stroke:#db0007;}.cls-12,.cls-14{fill:none;}.cls-12,.cls-14,.cls-15{stroke-width:0.07px;}.cls-16{fill:#bb8a1a;}.cls-17{fill:#00318a;}.cls-18{fill:#2b2f36;}.cls-19{fill:#9e8644;}.cls-20{fill:#a29165;}.cls-21{fill:#a48c4c;}.cls-22{fill:#fffffa;}.cls-23{fill:#a28c51;}.cls-24{fill:#a48c49;}.cls-25{fill:#fffffc;}.cls-26{fill:#03317f;}.cls-27{fill:#374041;}.cls-28{fill:#424740;}.cls-29{fill:#e1c278;}.cls-30{fill:#a48c4d;}.cls-31{fill:#323c41;}.cls-32{fill:#2b3b48;}.cls-33{fill:#ba8a1d;}.cls-34{fill:#2a3843;}.cls-35{fill:#1d2f44;}.cls-36{fill:#b3944a;}.cls-37{fill:#514e34;}.cls-38{fill:#596db1;}.cls-39{fill:#586eb1;}.cls-40{fill:#d3d3d6;}.cls-41{fill:#596db2;}.cls-42{fill:#d2d3d9;}.cls-43{fill:#cdd3e0;}.cls-44{fill:#b4c8eb;}.cls-45{fill:#d3d3d7;}.cls-46{fill:#5a6db2;}.cls-47{fill:#ea0e16;}.cls-48{fill:#536eb5;}.cls-49{fill:#5a6eae;}.cls-50{fill:#d7d3d5;}.cls-51{fill:#fdf7fb;}.cls-52{fill:#fdf8fd;}.cls-53{fill:#c6363b;}.cls-54{fill:#c63136;}.cls-55{fill:#576db5;}.cls-56{fill:#d2d3d8;}.cls-57{fill:#d2d3d7;}.cls-58{fill:#ef0c14;}.cls-59{fill:#e31219;}.cls-60{fill:#ef0d14;}.cls-61{fill:#dc151b;}.cls-62{fill:#d3d3d8;}.cls-63{fill:#e1131a;}.cls-64{fill:#566db5;}.cls-65{fill:#e21219;}.cls-66{fill:#f10b13;}.cls-67{fill:#f10c13;}.cls-68{fill:#e11219;}.cls-69{fill:#eb0f16;}.cls-70{fill:#e41118;}.cls-71{fill:#e90f16;}.cls-72{fill:#556db6;}.cls-73{fill:#f00c14;}.cls-74{fill:#d1d3d8;}.cls-75{fill:#bc7d80;}.cls-76{fill:#c86d70;}.cls-77{fill:#c33539;}.cls-78{fill:#566daf;}.cls-79{fill:#ce3439;}.cls-80{fill:#cc2b30;}.cls-81{fill:#ca1d23;}.cls-82{fill:#cdd3df;}.cls-83{fill:#5a6db1;}.cls-84{fill:#6c81b9;}.cls-85{fill:#fff3f9;}.cls-86{fill:#fff2f4;}.cls-87{fill:#f20b13;}.cls-88{fill:#f30b12;}.cls-89{fill:#043083;}.cls-90{fill:#cfd3de;}.cls-91{fill:#d2d3d6;}.cls-92{fill:#586db3;}.cls-93{fill:#c8cde1;}.cls-94{fill:#586eaf;}.cls-95{fill:#4c68a4;}.cls-96{fill:#5a72ae;}.cls-97{fill:#2a3a46;}.cls-98{fill:#fffff8;}.cls-99{fill:#a69a77;}.cls-100{fill:#323b38;}.cls-101{fill:#143362;}.cls-102{fill:#9b916e;}.cls-103{fill:#3b4342;}.cls-104{fill:#fffff4;}.cls-105{fill:#fffff6;}.cls-106{fill:#023185;}.cls-107{fill:#28334a;}.cls-108{fill:#2f3c42;}.cls-109{fill:#fffff7;}.cls-110{fill:#fffff3;}.cls-111{fill:#06317b;}.cls-112{fill:#374654;}.cls-113{fill:#253c58;}.cls-114{fill:#2a3e55;}.cls-115{fill:#fffff5;}.cls-116{fill:#c2b388;}.cls-117{fill:#3e4b53;}.cls-118{fill:#fffff9;}.cls-119{fill:#293e58;}.cls-120{fill:#a0936b;}.cls-121{fill:#363a31;}.cls-122{fill:#ab955c;}.cls-123{fill:#464b44;}.cls-124{fill:#3b4544;}.cls-125{fill:#2c3f56;}.cls-126{fill:#2f3d49;}.cls-127{fill:#b0a789;}</style></defs><title>Risorsa 1</title><g id="Livello_2" data-name="Livello 2"><g id="Livello_1-2" data-name="Livello 1"><rect class="cls-1" width="360" height="218.06" rx="4"/><path class="cls-2" d="M0,168.78H360v45.28a4,4,0,0,1-4,4H4a4,4,0,0,1-4-4Z"/><path class="cls-3" d="M23.56,34.33a.84.84,0,0,1-.22.26.51.51,0,0,1-.28.08.82.82,0,0,1-.39-.13,4.64,4.64,0,0,0-.48-.29,3.46,3.46,0,0,0-.67-.29,2.71,2.71,0,0,0-.9-.13,2.86,2.86,0,0,0-.82.11,1.88,1.88,0,0,0-.6.31,1.3,1.3,0,0,0-.35.49,1.54,1.54,0,0,0-.12.61,1.08,1.08,0,0,0,.24.72,2,2,0,0,0,.63.48,5.28,5.28,0,0,0,.9.36l1,.35a9.41,9.41,0,0,1,1,.42,3.4,3.4,0,0,1,.89.6,2.48,2.48,0,0,1,.63.89,2.94,2.94,0,0,1,.25,1.29A4.17,4.17,0,0,1,24.05,42a3.48,3.48,0,0,1-.82,1.25,4,4,0,0,1-1.32.84,5,5,0,0,1-1.79.3A5.52,5.52,0,0,1,19,44.27,6.67,6.67,0,0,1,17.9,44a6,6,0,0,1-1-.51,4.28,4.28,0,0,1-.8-.65l.66-1.09a.82.82,0,0,1,.22-.19.57.57,0,0,1,.29-.08.82.82,0,0,1,.45.17c.16.12.35.24.58.38a4.72,4.72,0,0,0,.78.39,3.14,3.14,0,0,0,1.08.17,2.23,2.23,0,0,0,1.49-.46,1.63,1.63,0,0,0,.53-1.32A1.25,1.25,0,0,0,22,40a1.86,1.86,0,0,0-.63-.5,4.12,4.12,0,0,0-.9-.35l-1-.31a8.18,8.18,0,0,1-1-.41,3.2,3.2,0,0,1-.89-.61,2.66,2.66,0,0,1-.64-.94,3.62,3.62,0,0,1-.24-1.4,3.3,3.3,0,0,1,1-2.41,3.86,3.86,0,0,1,1.24-.78A4.68,4.68,0,0,1,20.59,32a5.71,5.71,0,0,1,2,.33,4.63,4.63,0,0,1,1.55.94Zm6.85,6.25a10.94,10.94,0,0,0-1.51.16,3.71,3.71,0,0,0-1,.29,1.21,1.21,0,0,0-.53.41.84.84,0,0,0-.16.51.92.92,0,0,0,.32.78,1.4,1.4,0,0,0,.85.23,2.51,2.51,0,0,0,1.1-.22,3.37,3.37,0,0,0,.91-.71Zm-4.75-3.73a5.09,5.09,0,0,1,3.58-1.36,3.42,3.42,0,0,1,1.35.25,2.75,2.75,0,0,1,1,.69,2.9,2.9,0,0,1,.62,1,4.05,4.05,0,0,1,.21,1.34v5.44h-.94a1,1,0,0,1-.45-.09.6.6,0,0,1-.25-.36l-.18-.62c-.22.2-.44.37-.64.52a3.86,3.86,0,0,1-.65.37,3.19,3.19,0,0,1-.72.23,4.28,4.28,0,0,1-.84.08,3.62,3.62,0,0,1-1-.14A2.2,2.2,0,0,1,26,43.8a1.84,1.84,0,0,1-.52-.73,2.46,2.46,0,0,1-.19-1,2.06,2.06,0,0,1,.11-.65,1.93,1.93,0,0,1,.35-.62,3.3,3.3,0,0,1,.65-.55,3.9,3.9,0,0,1,1-.46,9.69,9.69,0,0,1,1.35-.31,14.13,14.13,0,0,1,1.74-.15v-.5A1.86,1.86,0,0,0,30,37.54,1.33,1.33,0,0,0,29,37.12a2.49,2.49,0,0,0-.84.12,3.48,3.48,0,0,0-.58.27l-.46.26a.9.9,0,0,1-.46.12.67.67,0,0,1-.37-.11,1,1,0,0,1-.24-.27Zm11.48,7.54a2.3,2.3,0,0,1-1.73-.63A2.44,2.44,0,0,1,34.82,42V37.2h-.88a.4.4,0,0,1-.41-.44v-.82l1.39-.23.43-2.35a.44.44,0,0,1,.47-.35h1.07v2.71h2.3V37.2h-2.3v4.67a.92.92,0,0,0,.19.62.68.68,0,0,0,.55.23,1,1,0,0,0,.32,0,1.56,1.56,0,0,0,.22-.1l.18-.09a.23.23,0,0,1,.15-.05.2.2,0,0,1,.15.05.52.52,0,0,1,.13.13l.62,1a3.18,3.18,0,0,1-1,.57A3.84,3.84,0,0,1,37.14,44.39Zm3.34,1.92a.37.37,0,0,1-.15-.31.56.56,0,0,1,0-.15l.12-.15.23-.25a3.37,3.37,0,0,0,.27-.34,3.16,3.16,0,0,0,.24-.41,1.76,1.76,0,0,0,.18-.47,1.26,1.26,0,0,1-.49-.09,1.31,1.31,0,0,1-.38-.27,1.28,1.28,0,0,1-.24-.39,1.35,1.35,0,0,1-.09-.5,1,1,0,0,1,.09-.43,1.15,1.15,0,0,1,.25-.37,1.28,1.28,0,0,1,.39-.24,1.3,1.3,0,0,1,.49-.09A1.25,1.25,0,0,1,42,42a.92.92,0,0,1,.39.31,1.2,1.2,0,0,1,.23.45,1.61,1.61,0,0,1,.09.54,2.82,2.82,0,0,1-.13.84,3.92,3.92,0,0,1-.35.89,5.33,5.33,0,0,1-1.38,1.64ZM56.19,42.7v1.56H49.48V42.7h2.46V35.63c0-.28,0-.57,0-.86l-1.74,1.46a1.05,1.05,0,0,1-.3.15h-.28a.79.79,0,0,1-.23-.09.51.51,0,0,1-.15-.14l-.65-.9,3.7-3.14H54V42.7Zm9.29-.37a.68.68,0,0,1,.52.19.63.63,0,0,1,.21.5v1.24H57.88v-.69a1.41,1.41,0,0,1,.08-.44,1.44,1.44,0,0,1,.29-.42L61.93,39c.31-.31.58-.61.83-.9a6.1,6.1,0,0,0,.61-.84,4.47,4.47,0,0,0,.37-.85,3.1,3.1,0,0,0,.13-.92,2.2,2.2,0,0,0-.12-.76,1.57,1.57,0,0,0-.37-.56,1.35,1.35,0,0,0-.55-.34,2,2,0,0,0-.72-.12,2.17,2.17,0,0,0-.69.11,1.72,1.72,0,0,0-.55.3,1.86,1.86,0,0,0-.41.43,1.88,1.88,0,0,0-.25.56,1,1,0,0,1-.37.51,1.12,1.12,0,0,1-.66.06l-1.09-.2A4.32,4.32,0,0,1,58.58,34a3.62,3.62,0,0,1,.9-1.1,3.45,3.45,0,0,1,1.24-.66A4.64,4.64,0,0,1,62.23,32a4.39,4.39,0,0,1,1.53.25,3.21,3.21,0,0,1,1.19.7A3.07,3.07,0,0,1,65.73,34a3.9,3.9,0,0,1,.07,2.66,4.77,4.77,0,0,1-.53,1.09,7.11,7.11,0,0,1-.77,1c-.29.32-.61.65-.93,1l-2.74,2.79a6,6,0,0,1,.79-.18,4.91,4.91,0,0,1,.74-.06Zm2.39.79a1.39,1.39,0,0,1,.09-.5,1.28,1.28,0,0,1,.27-.4,1.41,1.41,0,0,1,.4-.27,1.24,1.24,0,0,1,.5-.1,1.18,1.18,0,0,1,.5.1,1.28,1.28,0,0,1,.4.27,1.15,1.15,0,0,1,.28.4,1.21,1.21,0,0,1,.1.5,1.24,1.24,0,0,1-.1.5A1.21,1.21,0,0,1,70,44a1,1,0,0,1-.4.26,1.18,1.18,0,0,1-.5.1,1.24,1.24,0,0,1-.5-.1,1.07,1.07,0,0,1-.4-.26,1.36,1.36,0,0,1-.27-.39A1.43,1.43,0,0,1,67.87,43.12Zm0-6a1.33,1.33,0,0,1,.09-.49,1.46,1.46,0,0,1,.27-.41,1.2,1.2,0,0,1,.4-.26,1.24,1.24,0,0,1,.5-.1,1.18,1.18,0,0,1,.5.1,1.11,1.11,0,0,1,.4.26,1.3,1.3,0,0,1,.28.41,1.16,1.16,0,0,1,.1.49,1.25,1.25,0,0,1-.1.51A1.21,1.21,0,0,1,70,38a1.28,1.28,0,0,1-.4.27,1.35,1.35,0,0,1-.5.09,1.43,1.43,0,0,1-.5-.09,1.41,1.41,0,0,1-.4-.27,1.36,1.36,0,0,1-.27-.39A1.44,1.44,0,0,1,67.87,37.13Zm4.34-1.63A4.32,4.32,0,0,1,72.7,34a3.62,3.62,0,0,1,.9-1.1,3.45,3.45,0,0,1,1.24-.66A4.64,4.64,0,0,1,76.35,32a4.47,4.47,0,0,1,1.51.24,3.55,3.55,0,0,1,1.16.66,2.83,2.83,0,0,1,.73,1A3.06,3.06,0,0,1,80,35.12a3.49,3.49,0,0,1-.14,1,2.2,2.2,0,0,1-.37.77,2.26,2.26,0,0,1-.6.55,3.78,3.78,0,0,1-.81.38,3.19,3.19,0,0,1,1.62,1,2.83,2.83,0,0,1,.54,1.77,3.55,3.55,0,0,1-.34,1.6,3.37,3.37,0,0,1-.9,1.17,3.8,3.8,0,0,1-1.33.72,5.12,5.12,0,0,1-1.58.24,5.49,5.49,0,0,1-1.6-.21,3.5,3.5,0,0,1-1.18-.62,3.69,3.69,0,0,1-.86-1,7,7,0,0,1-.6-1.37l.91-.38a1.1,1.1,0,0,1,.68-.08.67.67,0,0,1,.46.34c.1.2.21.39.32.58a2.69,2.69,0,0,0,.44.51,2,2,0,0,0,.59.36,2.21,2.21,0,0,0,.81.14,2.36,2.36,0,0,0,.92-.17,1.9,1.9,0,0,0,.66-.46,1.59,1.59,0,0,0,.39-.61,1.89,1.89,0,0,0,.14-.69,3.1,3.1,0,0,0-.09-.78,1.2,1.2,0,0,0-.39-.62,2,2,0,0,0-.85-.39,5.78,5.78,0,0,0-1.47-.14V37.31a5.45,5.45,0,0,0,1.27-.14,2.29,2.29,0,0,0,.8-.37,1.37,1.37,0,0,0,.42-.58,2.21,2.21,0,0,0,.12-.74,1.73,1.73,0,0,0-.48-1.3,1.8,1.8,0,0,0-1.28-.45,2.15,2.15,0,0,0-.68.11,1.89,1.89,0,0,0-.56.3,1.86,1.86,0,0,0-.41.43,1.88,1.88,0,0,0-.25.56,1,1,0,0,1-.38.51,1.09,1.09,0,0,1-.65.06Zm12.24,1a5.56,5.56,0,0,1,.77-.12,5.85,5.85,0,0,1,.71,0,4.64,4.64,0,0,1,1.69.28,3.62,3.62,0,0,1,1.23.79,3.32,3.32,0,0,1,.74,1.19,4,4,0,0,1,.25,1.45,4.38,4.38,0,0,1-.34,1.76,4,4,0,0,1-.94,1.37,4.39,4.39,0,0,1-1.43.87,5,5,0,0,1-1.8.31,4.7,4.7,0,0,1-1.08-.12,4.79,4.79,0,0,1-1-.31,6,6,0,0,1-.83-.45,5.43,5.43,0,0,1-.68-.55l.64-.88a.61.61,0,0,1,.53-.28.82.82,0,0,1,.43.13l.49.3a5.2,5.2,0,0,0,.66.29,2.86,2.86,0,0,0,.93.13,2.59,2.59,0,0,0,1-.18,1.92,1.92,0,0,0,.73-.51,2.25,2.25,0,0,0,.43-.79,3.22,3.22,0,0,0,.15-1,2,2,0,0,0-.58-1.54,2.29,2.29,0,0,0-1.69-.57,5.35,5.35,0,0,0-1.77.32L82.43,38l1-5.89h6V33a1,1,0,0,1-.27.73,1.34,1.34,0,0,1-.94.27H84.88ZM93.87,42a2.06,2.06,0,0,0,.77.61,2.26,2.26,0,0,0,.9.18,1.93,1.93,0,0,0,.85-.18,1.73,1.73,0,0,0,.64-.54,2.67,2.67,0,0,0,.41-.9,5.57,5.57,0,0,0,.14-1.3,5.8,5.8,0,0,0-.12-1.28,2.53,2.53,0,0,0-.35-.86,1.38,1.38,0,0,0-.55-.47,1.57,1.57,0,0,0-.73-.16,2.11,2.11,0,0,0-1.1.28,3.34,3.34,0,0,0-.86.76Zm-.11-5.2a4.53,4.53,0,0,1,1.2-1,3.21,3.21,0,0,1,1.58-.37,2.83,2.83,0,0,1,1.28.29,2.77,2.77,0,0,1,1,.86A3.89,3.89,0,0,1,99.49,38a7.11,7.11,0,0,1,.23,1.88,6,6,0,0,1-.26,1.78,4.15,4.15,0,0,1-.75,1.43,3.35,3.35,0,0,1-1.16.95,3.44,3.44,0,0,1-1.53.33,3,3,0,0,1-1.23-.22,3,3,0,0,1-.92-.62v3.53H91.8V35.65h1.27a.51.51,0,0,1,.53.37Zm7.58,7.44V35.65h1.27a.49.49,0,0,1,.52.37l.14.64a5.07,5.07,0,0,1,.47-.46,3.1,3.1,0,0,1,.53-.36,2.57,2.57,0,0,1,.6-.23,2.37,2.37,0,0,1,.72-.1,2,2,0,0,1,1.33.45,2.61,2.61,0,0,1,.79,1.16,2.63,2.63,0,0,1,1.17-1.23,2.89,2.89,0,0,1,.76-.28,3.29,3.29,0,0,1,.82-.1,3.55,3.55,0,0,1,1.27.22,2.46,2.46,0,0,1,.93.64,2.82,2.82,0,0,1,.57,1,4.57,4.57,0,0,1,.2,1.39v5.48h-2.07V38.78a1.85,1.85,0,0,0-.36-1.24,1.33,1.33,0,0,0-1.06-.42,1.63,1.63,0,0,0-.59.11,1.55,1.55,0,0,0-.48.32,1.48,1.48,0,0,0-.32.51,2,2,0,0,0-.12.72v5.48h-2.08V38.78a1.88,1.88,0,0,0-.35-1.26,1.3,1.3,0,0,0-1-.4,1.72,1.72,0,0,0-.85.23,3.28,3.28,0,0,0-.72.6v6.31Z"/><path d="M24.2,76.09l-1.91-5a10.92,10.92,0,0,1-.42-1.29c-.06.25-.13.49-.2.72s-.14.42-.2.59l-1.91,5ZM28,80.9H26.52a.7.7,0,0,1-.42-.12.76.76,0,0,1-.23-.33l-1.14-3H19l-1.14,3a.8.8,0,0,1-.24.32.63.63,0,0,1-.41.13H15.76L20.91,68h1.93Zm2.88-7.39a4,4,0,0,1,1.06-1.41,2.26,2.26,0,0,1,1.49-.51,2,2,0,0,1,.56.07,1.34,1.34,0,0,1,.47.2l-.12,1.32a.28.28,0,0,1-.29.24,2.12,2.12,0,0,1-.38,0,2.35,2.35,0,0,0-.54-.06,1.93,1.93,0,0,0-.75.13,1.66,1.66,0,0,0-.58.36,2.5,2.5,0,0,0-.46.58,5.32,5.32,0,0,0-.36.79V80.9H29.21V71.76h1a.55.55,0,0,1,.39.1.67.67,0,0,1,.15.36Zm10.27-.18a.52.52,0,0,1-.15.17.46.46,0,0,1-.21,0,.74.74,0,0,1-.32-.1L40,73.23a3.11,3.11,0,0,0-.57-.21,2.66,2.66,0,0,0-.79-.1,2.19,2.19,0,0,0-.7.1,1.5,1.5,0,0,0-.52.26,1.23,1.23,0,0,0-.33.39,1,1,0,0,0-.12.49.84.84,0,0,0,.2.57,1.64,1.64,0,0,0,.53.38,5.32,5.32,0,0,0,.75.3l.85.27c.3.1.58.21.86.33a2.89,2.89,0,0,1,.74.46,1.89,1.89,0,0,1,.53.66,2,2,0,0,1,.21.94,3.08,3.08,0,0,1-.23,1.19,2.61,2.61,0,0,1-.68.94,3.21,3.21,0,0,1-1.09.62,5.15,5.15,0,0,1-3.25-.09,4.43,4.43,0,0,1-1.35-.8l.42-.68a.52.52,0,0,1,.18-.18A.5.5,0,0,1,36,79a.66.66,0,0,1,.35.13c.12.08.26.18.43.28a5.21,5.21,0,0,0,.61.27,2.88,2.88,0,0,0,.9.12,2.69,2.69,0,0,0,.79-.11,1.56,1.56,0,0,0,.54-.31,1.22,1.22,0,0,0,.34-.45,1.36,1.36,0,0,0,.11-.53.84.84,0,0,0-.21-.59,1.62,1.62,0,0,0-.53-.42,5.32,5.32,0,0,0-.75-.3l-.86-.26a8.26,8.26,0,0,1-.87-.34,2.67,2.67,0,0,1-.75-.48,2.06,2.06,0,0,1-.53-.7,2.19,2.19,0,0,1-.2-1,2.5,2.5,0,0,1,.21-1,2.69,2.69,0,0,1,.64-.86,3.16,3.16,0,0,1,1-.58,4.09,4.09,0,0,1,1.41-.23,4.48,4.48,0,0,1,1.64.29,3.85,3.85,0,0,1,1.26.79Zm8.49,2a2.93,2.93,0,0,0-.15-1,2.18,2.18,0,0,0-.44-.77,2,2,0,0,0-.7-.5,2.67,2.67,0,0,0-2.7.46,3.14,3.14,0,0,0-.8,1.77Zm1.45,4.29a3.58,3.58,0,0,1-.75.65,4.17,4.17,0,0,1-.9.44,5.55,5.55,0,0,1-1,.26,6.74,6.74,0,0,1-1,.08,4.78,4.78,0,0,1-1.75-.32,4,4,0,0,1-1.4-.93,4.66,4.66,0,0,1-.92-1.53,6.54,6.54,0,0,1-.32-2.11,5.06,5.06,0,0,1,.3-1.77,4.11,4.11,0,0,1,.84-1.44,4.17,4.17,0,0,1,1.36-1,4.55,4.55,0,0,1,1.8-.35,4.26,4.26,0,0,1,1.54.28,3.47,3.47,0,0,1,1.22.79A3.68,3.68,0,0,1,50.92,74a5,5,0,0,1,.29,1.75,1.16,1.16,0,0,1-.09.55.37.37,0,0,1-.33.13h-6A4.65,4.65,0,0,0,45,77.83a3,3,0,0,0,.57,1,2.2,2.2,0,0,0,.87.6,3.11,3.11,0,0,0,1.13.2,3.28,3.28,0,0,0,1-.13,5,5,0,0,0,.74-.29c.21-.11.38-.21.52-.3a.75.75,0,0,1,.38-.13.36.36,0,0,1,.33.16ZM54.75,73a4.84,4.84,0,0,1,.62-.58,3.76,3.76,0,0,1,.68-.44,3.66,3.66,0,0,1,.78-.29,3.82,3.82,0,0,1,.9-.11,3.39,3.39,0,0,1,1.33.25,2.64,2.64,0,0,1,1,.72,3,3,0,0,1,.58,1.08,4.56,4.56,0,0,1,.2,1.42V80.9H59V75.08a2.3,2.3,0,0,0-.45-1.52A1.67,1.67,0,0,0,57.21,73a2.69,2.69,0,0,0-1.27.32,4.17,4.17,0,0,0-1.09.87v6.7H53.1V71.76h1a.42.42,0,0,1,.46.35Zm13.34,3.81a13.63,13.63,0,0,0-1.82.17,4.85,4.85,0,0,0-1.22.35,1.52,1.52,0,0,0-.67.51,1.07,1.07,0,0,0-.21.65,1.55,1.55,0,0,0,.11.59,1.24,1.24,0,0,0,.3.4,1.33,1.33,0,0,0,.46.23,2.12,2.12,0,0,0,.57.07,2.85,2.85,0,0,0,.74-.08,3.22,3.22,0,0,0,.64-.22,4.92,4.92,0,0,0,.56-.37,6.15,6.15,0,0,0,.54-.5ZM62.94,73A5.34,5.34,0,0,1,64.59,72a5.27,5.27,0,0,1,2-.36,3.35,3.35,0,0,1,1.39.26,2.72,2.72,0,0,1,1,.71,3,3,0,0,1,.62,1.1,4.44,4.44,0,0,1,.21,1.41V80.9H69a.78.78,0,0,1-.39-.08.61.61,0,0,1-.22-.32l-.19-.81a7.08,7.08,0,0,1-.69.58,5.2,5.2,0,0,1-.72.42A4,4,0,0,1,66,81a5.28,5.28,0,0,1-.93.08,3.4,3.4,0,0,1-1-.14,2.24,2.24,0,0,1-1.38-1.22,2.76,2.76,0,0,1-.19-1.07,2.06,2.06,0,0,1,.28-1,2.71,2.71,0,0,1,1-.9A6.34,6.34,0,0,1,65.46,76a13.32,13.32,0,0,1,2.63-.28v-.67a2.29,2.29,0,0,0-.45-1.55A1.6,1.6,0,0,0,66.35,73a3,3,0,0,0-1,.14,3.92,3.92,0,0,0-.68.33c-.19.11-.35.21-.49.31a.74.74,0,0,1-.44.14.54.54,0,0,1-.31-.09,1.21,1.21,0,0,1-.21-.24Zm11-5.41V80.9H72.19V67.62Zm14.56,4.14L84.8,80.9H83.22l-3.71-9.14H81a.53.53,0,0,1,.34.1.45.45,0,0,1,.18.25l2.19,5.61c.08.24.14.47.2.71s.11.45.16.68c0-.23.1-.46.16-.68a7.17,7.17,0,0,1,.22-.71l2.21-5.61a.53.53,0,0,1,.19-.25.51.51,0,0,1,.32-.1ZM26.36,102.13a.35.35,0,0,1,.28.13l.76.82a5.27,5.27,0,0,1-1.94,1.45,6.59,6.59,0,0,1-2.73.51,6.51,6.51,0,0,1-2.55-.48,5.58,5.58,0,0,1-1.94-1.36A6.16,6.16,0,0,1,17,101.11a7.87,7.87,0,0,1-.44-2.67A7.63,7.63,0,0,1,17,95.77a6.13,6.13,0,0,1,1.31-2.09,5.82,5.82,0,0,1,2-1.36,6.74,6.74,0,0,1,2.58-.49,6.3,6.3,0,0,1,2.45.45,6.2,6.2,0,0,1,1.86,1.2l-.63.89a.49.49,0,0,1-.16.16.44.44,0,0,1-.25.07.77.77,0,0,1-.4-.17,3.71,3.71,0,0,0-.6-.38,4.17,4.17,0,0,0-.92-.39,4.82,4.82,0,0,0-1.37-.17,4.38,4.38,0,0,0-1.76.34,3.88,3.88,0,0,0-1.39,1,4.57,4.57,0,0,0-.9,1.56,6.4,6.4,0,0,0-.31,2.08,6.25,6.25,0,0,0,.33,2.1,4.49,4.49,0,0,0,.92,1.55,4,4,0,0,0,1.37,1,4.42,4.42,0,0,0,1.71.33,7.36,7.36,0,0,0,1-.06,4.45,4.45,0,0,0,.82-.21,4.22,4.22,0,0,0,.71-.34,6,6,0,0,0,.66-.52l.15-.1A.35.35,0,0,1,26.36,102.13Zm4.36-5.21A5,5,0,0,1,32,96a3.47,3.47,0,0,1,1.61-.36,3.38,3.38,0,0,1,1.32.25,2.6,2.6,0,0,1,1,.72,3.07,3.07,0,0,1,.58,1.09,4.75,4.75,0,0,1,.2,1.41v5.82H34.9V99.08a2.3,2.3,0,0,0-.45-1.52A1.66,1.66,0,0,0,33.08,97a2.66,2.66,0,0,0-1.27.32,4.17,4.17,0,0,0-1.09.87v6.7H29V91.62h1.76Zm14.37,2.39a2.93,2.93,0,0,0-.15-1,2.16,2.16,0,0,0-.43-.77,2.08,2.08,0,0,0-.7-.5,2.42,2.42,0,0,0-1-.18,2.32,2.32,0,0,0-1.74.64,3.07,3.07,0,0,0-.8,1.77Zm1.45,4.29a3.29,3.29,0,0,1-.74.65,4.68,4.68,0,0,1-.9.44,5.55,5.55,0,0,1-1,.26,6.85,6.85,0,0,1-1,.08,4.83,4.83,0,0,1-1.76-.32,4,4,0,0,1-1.39-.93,4.5,4.5,0,0,1-.92-1.53,6.27,6.27,0,0,1-.33-2.11,5.06,5.06,0,0,1,.3-1.77,4.23,4.23,0,0,1,.85-1.44A4,4,0,0,1,41,96a4.48,4.48,0,0,1,1.8-.35,4.26,4.26,0,0,1,1.54.28,3.47,3.47,0,0,1,1.22.79,3.66,3.66,0,0,1,.8,1.29,4.75,4.75,0,0,1,.3,1.75,1.16,1.16,0,0,1-.09.55.37.37,0,0,1-.34.13h-6a5,5,0,0,0,.24,1.43,2.82,2.82,0,0,0,.56,1,2.35,2.35,0,0,0,.87.6,3.15,3.15,0,0,0,1.13.2,3.35,3.35,0,0,0,1-.13,5.45,5.45,0,0,0,.74-.29c.21-.11.38-.21.52-.3a.72.72,0,0,1,.38-.13A.38.38,0,0,1,46,103Zm3.82-12V104.9H48.6V91.62Zm7.9,5.71a.52.52,0,0,1-.15.17.43.43,0,0,1-.21,0,.78.78,0,0,1-.32-.1l-.43-.22a3.11,3.11,0,0,0-.57-.21,2.66,2.66,0,0,0-.79-.1,2.24,2.24,0,0,0-.7.1,1.5,1.5,0,0,0-.52.26,1.23,1.23,0,0,0-.33.39,1,1,0,0,0-.12.49.84.84,0,0,0,.2.57,1.75,1.75,0,0,0,.53.38,5.32,5.32,0,0,0,.75.3l.85.27c.3.1.58.21.86.33a2.89,2.89,0,0,1,.74.46,2,2,0,0,1,.54.66,2.07,2.07,0,0,1,.2.94,3.08,3.08,0,0,1-.23,1.19,2.61,2.61,0,0,1-.68.94,3.21,3.21,0,0,1-1.09.62,5.15,5.15,0,0,1-3.25-.09,4.37,4.37,0,0,1-1.34-.8l.41-.68a.52.52,0,0,1,.18-.18.5.5,0,0,1,.29-.08.66.66,0,0,1,.35.13c.12.08.26.18.43.28a5.21,5.21,0,0,0,.61.27,2.88,2.88,0,0,0,.9.12,2.69,2.69,0,0,0,.79-.11,1.72,1.72,0,0,0,.55-.31,1.31,1.31,0,0,0,.33-.45,1.36,1.36,0,0,0,.11-.53.84.84,0,0,0-.21-.59,1.62,1.62,0,0,0-.53-.42,5.32,5.32,0,0,0-.75-.3l-.86-.26a8.26,8.26,0,0,1-.87-.34,2.67,2.67,0,0,1-.75-.48,2.06,2.06,0,0,1-.53-.7,2.19,2.19,0,0,1-.2-1,2.5,2.5,0,0,1,.21-1,2.69,2.69,0,0,1,.64-.86,3.16,3.16,0,0,1,1-.58,4.09,4.09,0,0,1,1.41-.23,4.48,4.48,0,0,1,1.64.29,3.85,3.85,0,0,1,1.26.79Zm8.49,2a2.93,2.93,0,0,0-.15-1,2.18,2.18,0,0,0-.44-.77,2,2,0,0,0-.7-.5,2.67,2.67,0,0,0-2.7.46,3.14,3.14,0,0,0-.8,1.77Zm1.45,4.29a3.58,3.58,0,0,1-.75.65,4.17,4.17,0,0,1-.9.44,5.55,5.55,0,0,1-1,.26,6.74,6.74,0,0,1-1,.08,4.78,4.78,0,0,1-1.75-.32,4,4,0,0,1-1.4-.93,4.66,4.66,0,0,1-.92-1.53,6.54,6.54,0,0,1-.32-2.11,5.06,5.06,0,0,1,.3-1.77,4.37,4.37,0,0,1,.84-1.44,4.17,4.17,0,0,1,1.36-1,4.55,4.55,0,0,1,1.8-.35,4.26,4.26,0,0,1,1.54.28,3.51,3.51,0,0,1,1.23.79A3.66,3.66,0,0,1,68,98a4.76,4.76,0,0,1,.29,1.75,1.16,1.16,0,0,1-.09.55.37.37,0,0,1-.33.13h-6a4.65,4.65,0,0,0,.23,1.43,3,3,0,0,0,.57,1,2.27,2.27,0,0,0,.87.6,3.11,3.11,0,0,0,1.13.2,3.28,3.28,0,0,0,1-.13,5,5,0,0,0,.74-.29,5.26,5.26,0,0,0,.52-.3.75.75,0,0,1,.38-.13.39.39,0,0,1,.34.16Zm6.93-2.76a13.63,13.63,0,0,0-1.81.17,4.85,4.85,0,0,0-1.22.35,1.52,1.52,0,0,0-.67.51,1.07,1.07,0,0,0-.21.65,1.55,1.55,0,0,0,.11.59,1.11,1.11,0,0,0,.3.4,1.25,1.25,0,0,0,.46.23,2.12,2.12,0,0,0,.57.07,2.85,2.85,0,0,0,.74-.08,3.22,3.22,0,0,0,.64-.22,4.06,4.06,0,0,0,1.09-.87ZM70,97A5.2,5.2,0,0,1,71.64,96a5.27,5.27,0,0,1,2-.36,3.38,3.38,0,0,1,1.39.26,2.72,2.72,0,0,1,1,.71,3,3,0,0,1,.62,1.1,4.44,4.44,0,0,1,.21,1.41v5.83h-.78a.86.86,0,0,1-.4-.08.6.6,0,0,1-.21-.32l-.19-.8c-.23.21-.47.4-.69.57a5.2,5.2,0,0,1-.72.42,3.42,3.42,0,0,1-.8.27,5.28,5.28,0,0,1-.93.08,3.4,3.4,0,0,1-1-.14,2.24,2.24,0,0,1-1.38-1.22,2.76,2.76,0,0,1-.19-1.07,2.06,2.06,0,0,1,.28-1,2.71,2.71,0,0,1,1-.9,6.34,6.34,0,0,1,1.73-.65,13.29,13.29,0,0,1,2.62-.28v-.67a2.29,2.29,0,0,0-.44-1.55A1.6,1.6,0,0,0,73.4,97a3,3,0,0,0-1,.14,3.92,3.92,0,0,0-.68.33c-.19.11-.35.21-.49.31a.74.74,0,0,1-.44.14.54.54,0,0,1-.31-.09.79.79,0,0,1-.21-.24Z"/><path d="M18.76,132.65v4h4.71v1.26H18.76v4.93H17.21V131.39h7.06v1.26Zm7.82,3.72a3.66,3.66,0,0,1,1-1.3,2.06,2.06,0,0,1,1.36-.47,1.88,1.88,0,0,1,.49.06,1.5,1.5,0,0,1,.43.18l-.11,1.06a.23.23,0,0,1-.24.2,1.81,1.81,0,0,1-.32,0,2.46,2.46,0,0,0-.49-.05,1.85,1.85,0,0,0-.69.12,1.51,1.51,0,0,0-.54.33A3,3,0,0,0,27,137a5.11,5.11,0,0,0-.34.74v5.12H25.23v-8.1h.82a.45.45,0,0,1,.32.09.47.47,0,0,1,.12.3Zm6-1.62v8.1H31.14v-8.1Zm.31-2.55a.93.93,0,0,1-.09.4,1.34,1.34,0,0,1-.22.31.91.91,0,0,1-.33.22,1,1,0,0,1-.79,0,.84.84,0,0,1-.31-.22,1.06,1.06,0,0,1-.21-.31.93.93,0,0,1-.09-.4.86.86,0,0,1,.09-.39.93.93,0,0,1,.21-.33,1,1,0,0,1,.31-.22,1,1,0,0,1,.79,0,1.06,1.06,0,0,1,.33.22,1.12,1.12,0,0,1,.22.33A.86.86,0,0,1,32.87,132.2Zm7.46,5.71a2.57,2.57,0,0,0-.15-.9,1.79,1.79,0,0,0-.41-.71,1.64,1.64,0,0,0-.64-.46,2.06,2.06,0,0,0-.88-.17,2.19,2.19,0,0,0-1.62.6,2.82,2.82,0,0,0-.74,1.64Zm1.15,3.8a2.59,2.59,0,0,1-.63.56,3.71,3.71,0,0,1-.8.39,4,4,0,0,1-.86.22,4.47,4.47,0,0,1-.89.08,4.11,4.11,0,0,1-1.55-.28,3.44,3.44,0,0,1-1.22-.83,3.74,3.74,0,0,1-.8-1.36,5.34,5.34,0,0,1-.29-1.86,4.8,4.8,0,0,1,.25-1.58,3.77,3.77,0,0,1,.76-1.27,3.32,3.32,0,0,1,1.19-.85,3.84,3.84,0,0,1,1.58-.31,3.49,3.49,0,0,1,1.35.25,3,3,0,0,1,1.07.7,3.2,3.2,0,0,1,.71,1.14,4.27,4.27,0,0,1,.26,1.53.86.86,0,0,1-.08.45.29.29,0,0,1-.27.11H35.85a4.73,4.73,0,0,0,.2,1.34,2.8,2.8,0,0,0,.53,1,2.26,2.26,0,0,0,.8.57,2.87,2.87,0,0,0,1,.18,3.07,3.07,0,0,0,.92-.12,3.58,3.58,0,0,0,.67-.27c.19-.1.35-.18.47-.26a.61.61,0,0,1,.33-.13.31.31,0,0,1,.27.14Zm3.22-5.79a5.58,5.58,0,0,1,.56-.53,3.91,3.91,0,0,1,.62-.41,3.06,3.06,0,0,1,.71-.27,3.47,3.47,0,0,1,.81-.09,2.79,2.79,0,0,1,1.16.22,2.25,2.25,0,0,1,.85.63,2.69,2.69,0,0,1,.52,1,4.17,4.17,0,0,1,.18,1.26v5.16H48.68v-5.16a2.15,2.15,0,0,0-.43-1.42,1.55,1.55,0,0,0-1.27-.51,2.41,2.41,0,0,0-1.18.3,3.88,3.88,0,0,0-1,.82v6H43.36v-8.1h.85a.36.36,0,0,1,.38.29Zm12.86.76a2.31,2.31,0,0,0-.87-.75,2.48,2.48,0,0,0-1-.22,2,2,0,0,0-1.73.81,3.76,3.76,0,0,0-.61,2.31,6.68,6.68,0,0,0,.13,1.36,2.85,2.85,0,0,0,.41.93,1.61,1.61,0,0,0,.64.52,2,2,0,0,0,.87.17,2.35,2.35,0,0,0,1.23-.32,3.54,3.54,0,0,0,1-.9ZM59,131.07v11.78h-.85a.36.36,0,0,1-.38-.3l-.13-1a4.5,4.5,0,0,1-1.18,1,3,3,0,0,1-1.54.38,2.9,2.9,0,0,1-1.26-.26,2.73,2.73,0,0,1-1-.79,3.83,3.83,0,0,1-.62-1.3,6.85,6.85,0,0,1-.21-1.78,5.62,5.62,0,0,1,.24-1.67,4.34,4.34,0,0,1,.68-1.34,3.16,3.16,0,0,1,1.1-.89,3.24,3.24,0,0,1,1.47-.33,2.87,2.87,0,0,1,1.27.26,3.09,3.09,0,0,1,1,.69v-4.48Zm3.72,0v11.78H61.28V131.07Zm9.3,3.68-4.52,10.49a.71.71,0,0,1-.18.26.5.5,0,0,1-.33.1h-1l1.48-3.22-3.35-7.63h1.23a.42.42,0,0,1,.29.09.39.39,0,0,1,.15.2l2.17,5.11a4.78,4.78,0,0,1,.22.7,6.56,6.56,0,0,1,.24-.71l2.1-5.1a.45.45,0,0,1,.16-.2.44.44,0,0,1,.27-.09Zm17.23-3.36v11.46H87.87v-8.42c0-.11,0-.23,0-.36l0-.39L84,140.84a.59.59,0,0,1-.56.36h-.22a.59.59,0,0,1-.56-.36l-4-7.2a5.67,5.67,0,0,1,0,.79v8.42H77.3V131.39h1.15a.86.86,0,0,1,.31,0c.08,0,.15.1.22.22l4,7.06c.07.13.13.26.19.4s.12.28.17.42c0-.14.11-.29.17-.42a3.89,3.89,0,0,1,.19-.41l3.89-7a.38.38,0,0,1,.21-.22,1,1,0,0,1,.33,0ZM96,139.2a12.3,12.3,0,0,0-1.68.16,5,5,0,0,0-1.13.32,1.79,1.79,0,0,0-.63.47,1,1,0,0,0-.19.61,1.37,1.37,0,0,0,.1.56,1.21,1.21,0,0,0,.28.38,1.32,1.32,0,0,0,.43.21,1.79,1.79,0,0,0,.53.07,2.84,2.84,0,0,0,.68-.07,2.78,2.78,0,0,0,.59-.23,3,3,0,0,0,.53-.34,4.19,4.19,0,0,0,.49-.46Zm-4.6-3.31a4.79,4.79,0,0,1,1.45-1,4.54,4.54,0,0,1,1.72-.32,3.07,3.07,0,0,1,1.21.23,2.46,2.46,0,0,1,.89.62,2.62,2.62,0,0,1,.54,1,4.1,4.1,0,0,1,.18,1.25v5.18h-.63a.7.7,0,0,1-.32-.06.5.5,0,0,1-.17-.28l-.16-.76c-.22.19-.43.37-.63.52a3.77,3.77,0,0,1-.64.39,3.19,3.19,0,0,1-.72.23,3.61,3.61,0,0,1-.84.09,2.9,2.9,0,0,1-.89-.13,2,2,0,0,1-.72-.4,1.9,1.9,0,0,1-.49-.66,2.38,2.38,0,0,1-.18-1,1.72,1.72,0,0,1,.27-.92,2.18,2.18,0,0,1,.85-.79,5.42,5.42,0,0,1,1.55-.57A11.37,11.37,0,0,1,96,138.3v-.63a2.12,2.12,0,0,0-.41-1.43,1.47,1.47,0,0,0-1.19-.48,2.57,2.57,0,0,0-.89.13,2.89,2.89,0,0,0-.61.3l-.45.29a.62.62,0,0,1-.37.13.43.43,0,0,1-.25-.07.77.77,0,0,1-.17-.19ZM101.92,143a2,2,0,0,1-1.48-.54,2.14,2.14,0,0,1-.51-1.54v-5H99a.38.38,0,0,1-.21-.07.32.32,0,0,1-.09-.24v-.57l1.33-.17.33-2.5a.29.29,0,0,1,.1-.19.29.29,0,0,1,.22-.08h.72v2.79h2.35v1h-2.35v4.86a1.05,1.05,0,0,0,.25.76.86.86,0,0,0,.64.25,1.48,1.48,0,0,0,.39-.05l.28-.14.2-.13a.29.29,0,0,1,.16-.06.25.25,0,0,1,.2.13l.41.68a2.74,2.74,0,0,1-.89.55A3.21,3.21,0,0,1,101.92,143Zm8.84-6.79a.53.53,0,0,1-.13.13.29.29,0,0,1-.17.05.48.48,0,0,1-.27-.1,4.12,4.12,0,0,0-.36-.22,2.34,2.34,0,0,0-.52-.21,2,2,0,0,0-.75-.11,2.32,2.32,0,0,0-1,.22,2.06,2.06,0,0,0-.77.6,2.83,2.83,0,0,0-.47,1,5,5,0,0,0-.15,1.27,4.8,4.8,0,0,0,.17,1.32,3,3,0,0,0,.47,1,2.26,2.26,0,0,0,.75.59,2.38,2.38,0,0,0,1,.2,2.62,2.62,0,0,0,.86-.12,3.11,3.11,0,0,0,.55-.28,3.35,3.35,0,0,0,.36-.27.46.46,0,0,1,.3-.13.29.29,0,0,1,.27.14l.4.51a2.45,2.45,0,0,1-.6.56,3.41,3.41,0,0,1-.73.4,4.1,4.1,0,0,1-.8.22,5,5,0,0,1-.87.07,3.48,3.48,0,0,1-1.41-.28,3.11,3.11,0,0,1-1.13-.8,3.86,3.86,0,0,1-.75-1.32,5.34,5.34,0,0,1-.28-1.77,5.57,5.57,0,0,1,.25-1.67,3.87,3.87,0,0,1,.74-1.32,3.37,3.37,0,0,1,1.19-.87,4,4,0,0,1,1.63-.31,3.77,3.77,0,0,1,1.51.28,3.59,3.59,0,0,1,1.16.78Zm3.43-.36a4.05,4.05,0,0,1,1.16-.88,3.07,3.07,0,0,1,1.45-.33,2.87,2.87,0,0,1,1.17.22,2.33,2.33,0,0,1,.85.63,2.69,2.69,0,0,1,.52,1,4.18,4.18,0,0,1,.17,1.26v5.16h-1.43v-5.16a2.15,2.15,0,0,0-.42-1.42,1.55,1.55,0,0,0-1.27-.51,2.45,2.45,0,0,0-1.19.3,4,4,0,0,0-1,.82v6h-1.43V131.07h1.43Z"/><path class="cls-3" d="M26.62,189.42H22.24v12H20.42v-12H16v-1.54H26.62Zm7.5,2.43v9.56h-1a.42.42,0,0,1-.45-.35l-.13-1a5.66,5.66,0,0,1-1.4,1.11,3.68,3.68,0,0,1-1.78.41,3.59,3.59,0,0,1-1.39-.25,2.84,2.84,0,0,1-1-.74,3.11,3.11,0,0,1-.61-1.14,5.3,5.3,0,0,1-.2-1.48v-6.1h1.68V198a2.63,2.63,0,0,0,.49,1.68,1.9,1.9,0,0,0,1.52.59,2.79,2.79,0,0,0,1.39-.35,4.39,4.39,0,0,0,1.2-1v-7Zm4.26,1.92a4.06,4.06,0,0,1,1.12-1.53,2.39,2.39,0,0,1,1.61-.56,2.12,2.12,0,0,1,.57.07,1.5,1.5,0,0,1,.5.2l-.12,1.26a.26.26,0,0,1-.28.24,1.85,1.85,0,0,1-.39-.06,2.49,2.49,0,0,0-.57-.06,2.56,2.56,0,0,0-.82.13,1.92,1.92,0,0,0-.63.4,2.79,2.79,0,0,0-.5.64,7.18,7.18,0,0,0-.4.87v6H36.79v-9.56h1a.54.54,0,0,1,.38.1.77.77,0,0,1,.14.36Zm6.87-.53a6.61,6.61,0,0,1,.66-.64,5.21,5.21,0,0,1,.74-.48,3.94,3.94,0,0,1,.83-.31,4.06,4.06,0,0,1,1-.11,3.5,3.5,0,0,1,1.38.26,2.64,2.64,0,0,1,1,.74,3,3,0,0,1,.61,1.14,5,5,0,0,1,.21,1.48v6.09H49.94v-6.09a2.57,2.57,0,0,0-.5-1.68,1.83,1.83,0,0,0-1.5-.6,2.86,2.86,0,0,0-1.4.36,4.66,4.66,0,0,0-1.19,1v7H43.66v-9.56h1a.43.43,0,0,1,.45.35Zm17.8-1.54a4.93,4.93,0,0,1,1.89.35,4,4,0,0,1,1.44,1,4.44,4.44,0,0,1,.9,1.56,5.88,5.88,0,0,1,.32,2,6,6,0,0,1-.32,2,4.35,4.35,0,0,1-.9,1.54,4.19,4.19,0,0,1-1.44,1,5.13,5.13,0,0,1-1.89.33,5.19,5.19,0,0,1-1.9-.33,4.19,4.19,0,0,1-1.44-1,4.37,4.37,0,0,1-.91-1.54,6.24,6.24,0,0,1-.32-2,6.13,6.13,0,0,1,.32-2,4.46,4.46,0,0,1,.91-1.56,4,4,0,0,1,1.44-1A5,5,0,0,1,63.05,191.7Zm0,8.53a2.46,2.46,0,0,0,2.12-.94,4.46,4.46,0,0,0,.7-2.65,4.51,4.51,0,0,0-.7-2.67,2.47,2.47,0,0,0-2.12-.95,2.88,2.88,0,0,0-1.25.25,2.33,2.33,0,0,0-.89.7,3.31,3.31,0,0,0-.53,1.15,6.3,6.3,0,0,0-.17,1.52,4.46,4.46,0,0,0,.7,2.65A2.5,2.5,0,0,0,63.05,200.23Zm8.27-7a6.61,6.61,0,0,1,.66-.64,5.21,5.21,0,0,1,.74-.48,3.94,3.94,0,0,1,.83-.31,4.12,4.12,0,0,1,1-.11,3.47,3.47,0,0,1,1.38.26,2.57,2.57,0,0,1,1,.74,3,3,0,0,1,.61,1.14,5,5,0,0,1,.21,1.48v6.09H76v-6.09a2.51,2.51,0,0,0-.5-1.68A1.82,1.82,0,0,0,74,193a2.8,2.8,0,0,0-1.39.36,4.49,4.49,0,0,0-1.19,1v7H69.74v-9.56h1a.42.42,0,0,1,.45.35Zm19,3.87a13.05,13.05,0,0,0-2,.19,5.32,5.32,0,0,0-1.33.38,1.84,1.84,0,0,0-.74.55A1.23,1.23,0,0,0,86,199a1.6,1.6,0,0,0,.12.65,1.28,1.28,0,0,0,.84.71,2.45,2.45,0,0,0,.62.07,3.48,3.48,0,0,0,.81-.08,3.17,3.17,0,0,0,.69-.26,3.7,3.7,0,0,0,.62-.41,5.89,5.89,0,0,0,.59-.54Zm-5.43-3.91a5.44,5.44,0,0,1,1.71-1.14,5.32,5.32,0,0,1,2-.38,3.71,3.71,0,0,1,1.42.26,3,3,0,0,1,1,.74,3.1,3.1,0,0,1,.64,1.14,4.64,4.64,0,0,1,.22,1.48v6.11h-.75a.74.74,0,0,1-.37-.07.6.6,0,0,1-.21-.32l-.19-.91c-.25.23-.5.44-.74.62a4.44,4.44,0,0,1-.75.46,4,4,0,0,1-.85.27,4.37,4.37,0,0,1-1,.1,3.6,3.6,0,0,1-1-.15,2.4,2.4,0,0,1-.86-.47,2.25,2.25,0,0,1-.57-.78,2.83,2.83,0,0,1-.21-1.14,2.07,2.07,0,0,1,.31-1.08,2.72,2.72,0,0,1,1-.94,6.46,6.46,0,0,1,1.82-.66,14.53,14.53,0,0,1,2.76-.3v-.74a2.51,2.51,0,0,0-.48-1.68,1.72,1.72,0,0,0-1.41-.58,2.94,2.94,0,0,0-1,.16,3.71,3.71,0,0,0-.72.35c-.21.13-.38.24-.53.35a.78.78,0,0,1-.44.15.48.48,0,0,1-.29-.09.88.88,0,0,1-.21-.22Zm11.37-5.69v13.9H94.54v-13.9Zm4.46,0v13.9H99v-13.9Zm7.56,13.9v-9.56h1a.42.42,0,0,1,.45.35l.12,1a5,5,0,0,1,1.19-1.07,2.87,2.87,0,0,1,1.53-.41,2.24,2.24,0,0,1,1.56.54,3.06,3.06,0,0,1,.87,1.45,3.34,3.34,0,0,1,.53-.9,3,3,0,0,1,.73-.62,3.41,3.41,0,0,1,.86-.36,4.24,4.24,0,0,1,.94-.11,3.52,3.52,0,0,1,1.34.24,2.63,2.63,0,0,1,1,.7,3.11,3.11,0,0,1,.63,1.15,5,5,0,0,1,.22,1.53v6.09h-1.69v-6.09a2.56,2.56,0,0,0-.49-1.69,1.73,1.73,0,0,0-1.42-.59,2.09,2.09,0,0,0-.79.15,1.93,1.93,0,0,0-.66.43,2,2,0,0,0-.45.71,2.78,2.78,0,0,0-.16,1v6.09h-1.69v-6.09a2.65,2.65,0,0,0-.46-1.71,1.64,1.64,0,0,0-1.35-.57,2,2,0,0,0-1.15.34,3.46,3.46,0,0,0-1,.91v7.12Zm20.7-4.3a13,13,0,0,0-2,.19,5.32,5.32,0,0,0-1.33.38,1.88,1.88,0,0,0-.75.55,1.22,1.22,0,0,0-.22.72,1.6,1.6,0,0,0,.12.65,1.25,1.25,0,0,0,.33.45,1.49,1.49,0,0,0,.5.26,2.51,2.51,0,0,0,.62.07,3.51,3.51,0,0,0,.82-.08,3.38,3.38,0,0,0,.69-.26,4.16,4.16,0,0,0,.62-.41,4.89,4.89,0,0,0,.58-.54Zm-5.43-3.91a5.44,5.44,0,0,1,1.71-1.14,5.32,5.32,0,0,1,2-.38,3.76,3.76,0,0,1,1.43.26,3.07,3.07,0,0,1,1,.74,3.25,3.25,0,0,1,.64,1.14,4.94,4.94,0,0,1,.22,1.48v6.11h-.75a.81.81,0,0,1-.38-.07.59.59,0,0,1-.2-.32l-.19-.91c-.26.23-.5.44-.74.62a4.52,4.52,0,0,1-.76.46,3.75,3.75,0,0,1-.84.27,4.4,4.4,0,0,1-1,.1,3.49,3.49,0,0,1-1-.15,2.32,2.32,0,0,1-.86-.47,2.41,2.41,0,0,1-.58-.78A2.83,2.83,0,0,1,123,199a2.16,2.16,0,0,1,.31-1.08,2.76,2.76,0,0,1,1-.94,6.46,6.46,0,0,1,1.82-.66,14.41,14.41,0,0,1,2.75-.3v-.74a2.51,2.51,0,0,0-.48-1.68,1.72,1.72,0,0,0-1.41-.58,2.88,2.88,0,0,0-1,.16,3.81,3.81,0,0,0-.73.35c-.2.13-.38.24-.53.35a.75.75,0,0,1-.43.15.51.51,0,0,1-.3-.09.7.7,0,0,1-.2-.22ZM136,201.56a2.32,2.32,0,0,1-1.74-.63,2.5,2.5,0,0,1-.61-1.82v-5.85h-1.15a.35.35,0,0,1-.25-.09.36.36,0,0,1-.11-.28v-.67l1.57-.2.39-3a.42.42,0,0,1,.12-.23.35.35,0,0,1,.26-.1h.85V192h2.77v1.22h-2.77V199a1.22,1.22,0,0,0,.29.89,1,1,0,0,0,.76.3,1.42,1.42,0,0,0,.45-.07,1.55,1.55,0,0,0,.34-.16l.24-.15a.34.34,0,0,1,.18-.08.28.28,0,0,1,.23.16l.5.81a3.25,3.25,0,0,1-1.05.64A3.65,3.65,0,0,1,136,201.56Zm10.43-8a.78.78,0,0,1-.15.16.33.33,0,0,1-.21.06.58.58,0,0,1-.31-.12,3.5,3.5,0,0,0-.42-.26,2.94,2.94,0,0,0-.61-.26,2.86,2.86,0,0,0-.89-.12,2.91,2.91,0,0,0-1.25.26,2.42,2.42,0,0,0-.91.71,3.5,3.5,0,0,0-.54,1.15,6.22,6.22,0,0,0,0,3.05,3.61,3.61,0,0,0,.55,1.13,2.7,2.7,0,0,0,.88.7,2.93,2.93,0,0,0,2.83-.24l.43-.32a.56.56,0,0,1,.35-.15.36.36,0,0,1,.32.16l.47.61a3.17,3.17,0,0,1-.71.66,4.19,4.19,0,0,1-.86.47,4.93,4.93,0,0,1-1,.26,5.7,5.7,0,0,1-1,.08,4.22,4.22,0,0,1-1.67-.33,3.78,3.78,0,0,1-1.33-1,4.6,4.6,0,0,1-.89-1.55,6.35,6.35,0,0,1-.32-2.08,6.63,6.63,0,0,1,.29-2,4.43,4.43,0,0,1,.87-1.55,3.82,3.82,0,0,1,1.41-1,4.67,4.67,0,0,1,1.92-.37,4.45,4.45,0,0,1,1.78.33,4.08,4.08,0,0,1,1.37.92Zm4.05-.43a5.09,5.09,0,0,1,1.36-1,3.66,3.66,0,0,1,1.72-.39,3.47,3.47,0,0,1,1.38.26,2.57,2.57,0,0,1,1,.74,3.21,3.21,0,0,1,.62,1.14,5.3,5.3,0,0,1,.2,1.48v6.09H155v-6.09a2.51,2.51,0,0,0-.5-1.68,1.81,1.81,0,0,0-1.5-.6,2.86,2.86,0,0,0-1.4.36,4.83,4.83,0,0,0-1.19,1v7h-1.69v-13.9h1.69Zm15.26.12a6.61,6.61,0,0,1,.66-.64,5.21,5.21,0,0,1,.74-.48,3.94,3.94,0,0,1,.83-.31,4.06,4.06,0,0,1,1-.11,3.5,3.5,0,0,1,1.38.26,2.57,2.57,0,0,1,1,.74,3.21,3.21,0,0,1,.62,1.14,5.3,5.3,0,0,1,.2,1.48v6.09h-1.69v-6.09a2.51,2.51,0,0,0-.5-1.68,1.83,1.83,0,0,0-1.5-.6,2.86,2.86,0,0,0-1.4.36,4.83,4.83,0,0,0-1.19,1v7H164.1v-9.56h1a.42.42,0,0,1,.44.35Zm13-1.54a4.93,4.93,0,0,1,1.89.35,4,4,0,0,1,1.44,1,4.29,4.29,0,0,1,.9,1.56,5.88,5.88,0,0,1,.32,2,6,6,0,0,1-.32,2,4.1,4.1,0,0,1-2.34,2.54,5.13,5.13,0,0,1-1.89.33,5.19,5.19,0,0,1-1.9-.33,4.19,4.19,0,0,1-1.44-1,4.37,4.37,0,0,1-.91-1.54,6.24,6.24,0,0,1-.31-2,6.14,6.14,0,0,1,.31-2,4.46,4.46,0,0,1,.91-1.56,4,4,0,0,1,1.44-1A5,5,0,0,1,178.66,191.7Zm0,8.53a2.46,2.46,0,0,0,2.12-.94,4.46,4.46,0,0,0,.7-2.65,4.51,4.51,0,0,0-.7-2.67,2.47,2.47,0,0,0-2.12-.95,2.91,2.91,0,0,0-1.25.25,2.33,2.33,0,0,0-.89.7,3.31,3.31,0,0,0-.53,1.15,6.3,6.3,0,0,0-.17,1.52,4.39,4.39,0,0,0,.7,2.65A2.5,2.5,0,0,0,178.66,200.23Zm15.39,1.18h-1.68v-8.15h-4.92V199a1.18,1.18,0,0,0,.29.89,1,1,0,0,0,.75.3,1.53,1.53,0,0,0,.46-.07,2.16,2.16,0,0,0,.34-.16l.23-.15a.34.34,0,0,1,.18-.08.31.31,0,0,1,.24.16l.49.81a3.25,3.25,0,0,1-1.05.64,3.63,3.63,0,0,1-1.26.22,2.33,2.33,0,0,1-1.75-.63,2.54,2.54,0,0,1-.6-1.82v-5.85h-1.16a.37.37,0,0,1-.25-.09.36.36,0,0,1-.1-.28v-.67l1.56-.21.39-2.94a.42.42,0,0,1,.12-.23.36.36,0,0,1,.27-.1h.85V192h6.6Zm.42-12.63a1.15,1.15,0,0,1-.1.46,1.26,1.26,0,0,1-.27.37,1.28,1.28,0,0,1-.38.26,1.22,1.22,0,0,1-.92,0,1.37,1.37,0,0,1-.37-.26,1.23,1.23,0,0,1-.26-.37,1.14,1.14,0,0,1-.09-.46,1.18,1.18,0,0,1,.09-.46,1.33,1.33,0,0,1,.26-.39,1.18,1.18,0,0,1,.37-.26,1.11,1.11,0,0,1,.92,0,1.12,1.12,0,0,1,.38.26,1.36,1.36,0,0,1,.27.39A1.19,1.19,0,0,1,194.47,188.78Zm3,12.63v-8.12l-1.06-.13a.84.84,0,0,1-.33-.14.37.37,0,0,1-.12-.29V192h1.51v-.53a4.65,4.65,0,0,1,.27-1.61,3.36,3.36,0,0,1,.82-1.26,3.78,3.78,0,0,1,1.36-.82,5.54,5.54,0,0,1,1.9-.29,6.34,6.34,0,0,1,.74,0,3.51,3.51,0,0,1,.65.14l-.07.88a.17.17,0,0,1-.08.14.31.31,0,0,1-.16,0h-.61a3.53,3.53,0,0,0-2.43.7,2.68,2.68,0,0,0-.76,2.09V192h5.78v9.37h-1.69v-8.15h-4v8.15Zm16.81-7.86a.58.58,0,0,1-.15.16.3.3,0,0,1-.2.06.53.53,0,0,1-.31-.12,4.84,4.84,0,0,0-.43-.26,2.94,2.94,0,0,0-.61-.26,2.86,2.86,0,0,0-.89-.12,2.91,2.91,0,0,0-1.25.26,2.32,2.32,0,0,0-.9.71,3.51,3.51,0,0,0-.55,1.15,6.22,6.22,0,0,0,0,3.05,3.61,3.61,0,0,0,.55,1.13,2.7,2.7,0,0,0,.88.7,2.93,2.93,0,0,0,1.16.23,2.71,2.71,0,0,0,1.67-.47l.43-.32a.56.56,0,0,1,.35-.15.35.35,0,0,1,.32.16l.47.61a3,3,0,0,1-.71.66,4.39,4.39,0,0,1-.85.47,5.23,5.23,0,0,1-1,.26,5.7,5.7,0,0,1-1,.08,4.22,4.22,0,0,1-1.67-.33,3.78,3.78,0,0,1-1.33-1,4.6,4.6,0,0,1-.89-1.55,6.35,6.35,0,0,1-.32-2.08,6.63,6.63,0,0,1,.29-2,4.59,4.59,0,0,1,.87-1.55,3.9,3.9,0,0,1,1.41-1,4.68,4.68,0,0,1,1.93-.37,4.44,4.44,0,0,1,1.77.33,4.08,4.08,0,0,1,1.37.92Zm7.55,3.56a12.91,12.91,0,0,0-2,.19,5.19,5.19,0,0,0-1.33.38,1.88,1.88,0,0,0-.75.55,1.23,1.23,0,0,0-.23.72,1.45,1.45,0,0,0,.13.65,1.25,1.25,0,0,0,.33.45,1.4,1.4,0,0,0,.5.26,2.45,2.45,0,0,0,.62.07,3.37,3.37,0,0,0,.81-.08,3,3,0,0,0,.69-.26,3.7,3.7,0,0,0,.62-.41,5.89,5.89,0,0,0,.59-.54Zm-5.43-3.91a5.44,5.44,0,0,1,1.71-1.14,5.32,5.32,0,0,1,2-.38,3.71,3.71,0,0,1,1.42.26,2.93,2.93,0,0,1,1.69,1.88,4.64,4.64,0,0,1,.22,1.48v6.11h-.74a.78.78,0,0,1-.38-.07.6.6,0,0,1-.21-.32l-.19-.91c-.25.23-.49.44-.73.62a5,5,0,0,1-.76.46,3.84,3.84,0,0,1-.85.27,4.37,4.37,0,0,1-1,.1,3.6,3.6,0,0,1-1.05-.15,2.4,2.4,0,0,1-.86-.47,2.25,2.25,0,0,1-.57-.78,2.83,2.83,0,0,1-.21-1.14,2.07,2.07,0,0,1,.31-1.08,2.72,2.72,0,0,1,1-.94,6.58,6.58,0,0,1,1.82-.66,14.53,14.53,0,0,1,2.76-.3v-.74a2.51,2.51,0,0,0-.48-1.68,1.72,1.72,0,0,0-1.41-.58,3,3,0,0,0-1.05.16,3.71,3.71,0,0,0-.72.35c-.21.13-.38.24-.53.35a.78.78,0,0,1-.44.15.48.48,0,0,1-.29-.09.88.88,0,0,1-.21-.22Zm18.38,8.21h-1.68v-8.15h-4.93V199a1.22,1.22,0,0,0,.29.89,1,1,0,0,0,.76.3,1.52,1.52,0,0,0,.45-.07A2.16,2.16,0,0,0,230,200l.23-.15a.34.34,0,0,1,.19-.08.31.31,0,0,1,.23.16l.49.81a3.25,3.25,0,0,1-1,.64,3.63,3.63,0,0,1-1.26.22,2.33,2.33,0,0,1-1.75-.63,2.54,2.54,0,0,1-.6-1.82v-5.85h-1.15a.39.39,0,0,1-.26-.09.36.36,0,0,1-.1-.28v-.67l1.56-.21.39-2.94a.42.42,0,0,1,.12-.23.36.36,0,0,1,.27-.1h.85V192h6.61Zm.41-12.63a1,1,0,0,1-.1.46,1,1,0,0,1-.27.37,1.11,1.11,0,0,1-.84.35,1.22,1.22,0,0,1-.46-.09,1.37,1.37,0,0,1-.37-.26,1.21,1.21,0,0,1-.25-.37,1.15,1.15,0,0,1-.1-.46,1.19,1.19,0,0,1,.1-.46,1.3,1.3,0,0,1,.25-.39,1.18,1.18,0,0,1,.37-.26,1.06,1.06,0,0,1,.46-.1,1.17,1.17,0,0,1,.84.36,1.05,1.05,0,0,1,.27.39A1,1,0,0,1,235.18,188.78Zm6.38,2.92a4.93,4.93,0,0,1,1.89.35,4,4,0,0,1,1.43,1,4.31,4.31,0,0,1,.91,1.56,6.13,6.13,0,0,1,.32,2,6.24,6.24,0,0,1-.32,2,4.23,4.23,0,0,1-.91,1.54,4.15,4.15,0,0,1-1.43,1,5.13,5.13,0,0,1-1.89.33,5.24,5.24,0,0,1-1.91-.33,4.06,4.06,0,0,1-1.43-1,4.39,4.39,0,0,1-.92-1.54,6.24,6.24,0,0,1-.31-2,6.14,6.14,0,0,1,.31-2,4.48,4.48,0,0,1,.92-1.56,3.91,3.91,0,0,1,1.43-1A5,5,0,0,1,241.56,191.7Zm0,8.53a2.44,2.44,0,0,0,2.11-.94,4.39,4.39,0,0,0,.7-2.65,4.44,4.44,0,0,0-.7-2.67,2.45,2.45,0,0,0-2.11-.95,2.92,2.92,0,0,0-1.26.25,2.23,2.23,0,0,0-.88.7,3.14,3.14,0,0,0-.53,1.15,5.84,5.84,0,0,0-.17,1.52,4.39,4.39,0,0,0,.7,2.65A2.49,2.49,0,0,0,241.56,200.23Zm8.27-7a5,5,0,0,1,.66-.64,5.11,5.11,0,0,1,.73-.48,4.39,4.39,0,0,1,.83-.31,4.21,4.21,0,0,1,1-.11,3.5,3.5,0,0,1,1.38.26,2.64,2.64,0,0,1,1,.74,3.2,3.2,0,0,1,.61,1.14,5,5,0,0,1,.21,1.48v6.09h-1.69v-6.09a2.57,2.57,0,0,0-.5-1.68,1.83,1.83,0,0,0-1.5-.6,2.83,2.83,0,0,0-1.4.36,4.66,4.66,0,0,0-1.19,1v7h-1.69v-9.56h1a.41.41,0,0,1,.44.35Zm14.51.19a.37.37,0,0,1-.35.2.62.62,0,0,1-.32-.1l-.44-.23a3.68,3.68,0,0,0-.62-.23,2.68,2.68,0,0,0-.85-.12,2.24,2.24,0,0,0-.76.12,1.81,1.81,0,0,0-.59.29,1.4,1.4,0,0,0-.37.44,1.25,1.25,0,0,0-.12.54.93.93,0,0,0,.21.62,1.84,1.84,0,0,0,.57.42,4.48,4.48,0,0,0,.79.32l.9.29.92.34a3.27,3.27,0,0,1,.79.48,1.93,1.93,0,0,1,.56.7,2.06,2.06,0,0,1,.22,1,3.05,3.05,0,0,1-.24,1.22,2.72,2.72,0,0,1-.7,1,3.44,3.44,0,0,1-1.13.64,4.6,4.6,0,0,1-1.55.23,4.67,4.67,0,0,1-3.19-1.16l.4-.64a.66.66,0,0,1,.18-.19.48.48,0,0,1,.26-.06.64.64,0,0,1,.36.13c.12.09.28.18.45.29a3.72,3.72,0,0,0,.66.29,3,3,0,0,0,1,.14,2.45,2.45,0,0,0,.85-.13,1.7,1.7,0,0,0,.62-.35,1.36,1.36,0,0,0,.36-.5,1.5,1.5,0,0,0,.12-.6.93.93,0,0,0-.22-.65,1.55,1.55,0,0,0-.55-.45,4.72,4.72,0,0,0-.81-.32l-.91-.29c-.31-.1-.62-.21-.92-.34a3.5,3.5,0,0,1-.79-.49,2.52,2.52,0,0,1-.57-.72,2.4,2.4,0,0,1-.2-1.05,2.55,2.55,0,0,1,.88-1.93,3.19,3.19,0,0,1,1.07-.61,4,4,0,0,1,1.44-.23,4.47,4.47,0,0,1,1.69.3,4.14,4.14,0,0,1,1.31.81Z"/><path class="cls-4" d="M312.76,187.65h14.71a6.3,6.3,0,0,1,6.29,6.3h0a6.29,6.29,0,0,1-6.29,6.29H312.76a6.29,6.29,0,0,1-6.29-6.29h0A6.3,6.3,0,0,1,312.76,187.65Z"/><ellipse class="cls-1" cx="310.67" cy="193.95" rx="10.5" ry="10.48"/><path class="cls-5" d="M238.07,46.13c-8.48,0-24.11,2.2-32.06,6.84-10.48,37.28,3.77,62.64,32.06,77,28.29-14.39,42.54-39.87,32.06-77C262.17,48.33,246.54,46.13,238.07,46.13Z"/><path class="cls-6" d="M238.07,48.52a75,75,0,0,0-30,6.1c-9.14,32.55,1.46,58.63,30,72.84,28.51-14.21,39.11-40.29,30-72.84A75,75,0,0,0,238.07,48.52Z"/><path class="cls-7" d="M238,48.49a72,72,0,0,0-25.21,4.29c-8.33,33.32-2.19,57.65,25.26,74.66Zm.05,78.95c27.44-17,33.58-41.34,25.25-74.66a72,72,0,0,0-25.21-4.29Z"/><path class="cls-8" d="M238.08,48.49a73.71,73.71,0,0,0-23.63,3.66c-8.62,34.92-1.7,58.5,23.63,74.62Z"/><path class="cls-9" d="M238.09,48.49a73.86,73.86,0,0,1,23.64,3.66c8.62,34.92,1.69,58.5-23.65,74.62Z"/><path class="cls-1" d="M227.31,101.18a28.7,28.7,0,0,1-10,4.35l-2.05-3.2a38.4,38.4,0,0,0,9.61-7A9.13,9.13,0,0,0,227.31,101.18Z"/><path class="cls-10" d="M226.81,101.05c-3.49,2.41-8.35,4.08-13.92,4.9l-1.13-1.73A34.48,34.48,0,0,0,224.69,96,13.75,13.75,0,0,0,226.81,101.05Z"/><path class="cls-1" d="M217.51,86.36a2.42,2.42,0,1,1-2.42-2.42A2.42,2.42,0,0,1,217.51,86.36Z"/><path class="cls-1" d="M217.25,81.58v9.16h7.19c.47-3.07,2.21-6.33,6.15-9.16Z"/><path class="cls-1" d="M217.54,90.74c-1.6,0-2.93-2-2.95-4.53s1.27-4.6,2.88-4.63h.05"/><path class="cls-10" d="M216.49,86.36a1.69,1.69,0,1,1-1.67-1.87A1.78,1.78,0,0,1,216.49,86.36Z"/><path class="cls-10" d="M217.45,82.06v8.23h7.13A13.29,13.29,0,0,1,230,82.06Z"/><path class="cls-10" d="M217.71,90.29c-1.51,0-2.75-1.79-2.77-4.06s1.2-4.14,2.71-4.17h0"/><path class="cls-1" d="M251.73,92.89a13.79,13.79,0,1,1-13.79-13.84A13.81,13.81,0,0,1,251.73,92.89Z"/><path class="cls-10" d="M251,92.89a13.06,13.06,0,1,1-13.07-13.12A13.09,13.09,0,0,1,251,92.89Z"/><path class="cls-1" d="M248.84,92.89A10.89,10.89,0,1,1,237.94,82,10.92,10.92,0,0,1,248.84,92.89Z"/><path class="cls-10" d="M248.12,92.89a10.17,10.17,0,1,1-10.18-10.21A10.2,10.2,0,0,1,248.12,92.89Z"/><path class="cls-1" d="M242.18,92.89a4.24,4.24,0,1,1-8.48,0h0a4.24,4.24,0,1,1,8.48,0Z"/><path class="cls-10" d="M241.68,92.89a3.74,3.74,0,1,1-7.48,0h0a3.74,3.74,0,1,1,7.48,0Z"/><path class="cls-1" d="M239.87,92.89A1.92,1.92,0,1,1,237.94,91,1.94,1.94,0,0,1,239.87,92.89Z"/><path class="cls-10" d="M239.34,92.89a1.4,1.4,0,1,1-1.4-1.4A1.4,1.4,0,0,1,239.34,92.89Z"/><path class="cls-1" d="M239.38,82.44h-2.9v6.78h2.9Z"/><path class="cls-10" d="M238.93,81.47h-2v8.62h2Z"/><path class="cls-1" d="M246,86.27l1.58,2.44-5.66,3.69L240.35,90Z"/><path class="cls-10" d="M247.07,86.12l1.09,1.68L241,92.5l-1.09-1.69Z"/><path class="cls-1" d="M233.88,93.44l1.55,2.45-5.7,3.63-1.55-2.46Z"/><path class="cls-10" d="M234.85,93.29l1.07,1.7-7.24,4.62-1.08-1.7Z"/><path class="cls-1" d="M239.38,96.78h-2.9v6.78h2.9Z"/><path class="cls-10" d="M238.93,95.81h-2v8.61h2Z"/><path class="cls-11" d="M235.12,96.05a5.27,5.27,0,0,0,1.36.86l0,6a9.54,9.54,0,0,1-6.36-3.63l5-3.28"/><path class="cls-12" d="M235.12,96.05a5.27,5.27,0,0,0,1.36.86l0,6a9.54,9.54,0,0,1-6.36-3.63l5-3.28"/><path class="cls-13" d="M240.76,96.08a5.42,5.42,0,0,1-1.36.85v6a9.62,9.62,0,0,0,6.36-3.63l-5-3.27"/><path class="cls-14" d="M240.76,96.08a5.42,5.42,0,0,1-1.36.85v6a9.62,9.62,0,0,0,6.36-3.63l-5-3.27"/><path class="cls-13" d="M242.13,93.54l6-.72a9.79,9.79,0,0,1-.82,4.08l-5.18-3.36"/><path class="cls-15" d="M242.14,93.51c0-.09,0-.18.05-.45l5.9-.77a2,2,0,0,1,0,.5Z"/><path class="cls-1" d="M250.87,88.53h7.74c-.24.91-.48,1.85-1.59,2.27a43.51,43.51,0,0,1-5.46,1.31A15.83,15.83,0,0,0,250.87,88.53Z"/><path class="cls-1" d="M245.48,81.44l20.22,0L265,88.89l-13.81.72A14.69,14.69,0,0,0,245.48,81.44Z"/><path class="cls-10" d="M246.2,82,272,82l-1,6-20,1A13.78,13.78,0,0,0,246.2,82Z"/><path class="cls-10" d="M250.87,88.53H258c-.23.81-.4,1.56-1.45,1.93a34.14,34.14,0,0,1-5,1.07A19.73,19.73,0,0,0,250.87,88.53Z"/><path class="cls-10" d="M243,70.67c0,.33-.07,1.23-.11,1.49h4a21.4,21.4,0,0,1-.38-3.71c0,.08-.07-2.3-.07-2.3a.76.76,0,0,1,.17-.49.49.49,0,0,1,.45-.17c.18-.08.49-.08.53.58l.1,2.46a23.5,23.5,0,0,1-.1,3.63h3.86c0-.33-.14-1.16-.18-1.4a3,3,0,0,0,2.93,1.64,3.41,3.41,0,0,0,1.95-.65,2,2,0,0,0,.2.41h7.17a21.45,21.45,0,0,1-.62-3.71l-1-8.06-3.69-.66a28.16,28.16,0,0,1,.66,3.7l.56,5.19a26.71,26.71,0,0,1,.17,3v.08l-.14-.33a9.11,9.11,0,0,1-.52-2.71L258.84,67c-.21-2.63-1.63-3.78-4.77-3.78a11,11,0,0,0-2.64.33l.21,2.95.83-.48a3.36,3.36,0,0,1,1.84-.59.91.91,0,0,1,.95.5,7.93,7.93,0,0,0-2,.57,3.82,3.82,0,0,0-2.12,2.06v-.08L251,65.73a2.77,2.77,0,0,0-2.89-2.87,3.69,3.69,0,0,0-2.08.66c0-.09-.07-.17-.11-.25l-.14-.33-3.2-.17a27.29,27.29,0,0,1,.39,2.8,4.15,4.15,0,0,0-1.47-2.38,4.43,4.43,0,0,0-2.36-.66,4.53,4.53,0,0,0-3.2,1.32,4.65,4.65,0,0,0-1.29,3.28,3.08,3.08,0,0,0-1.22-.81L232,65.57h-.07c-.34-.17-.39-.24-.39-.32s.39-.33.84-.33a4.88,4.88,0,0,1,2.19.74l.07-2.64a5.31,5.31,0,0,0-2.3-.41,5.39,5.39,0,0,0-2.5.58c-.24.16-.46.33-.66.49l0-.74a2.89,2.89,0,0,0-2.85.91c0-.09-.1-.5-.18-.66l-3.44.16A13.56,13.56,0,0,1,223,67l-.07,1.32v.16c0,.66-.07,1.4-.14,2.06-.28-.91-.59-2.14-.84-3.13l-1.7-7.73-4.87.74a3.88,3.88,0,0,1,.14.57,6.05,6.05,0,0,1-.42,2.39c-.8,2.22-1.91,5.6-3,8-.14.33-.42.82-.42.82h3.79a14.91,14.91,0,0,1,.56-2.3c.52,0,1.88,0,2.5-.08a13.59,13.59,0,0,1,.32,1.81l.07.57h7.59a20.09,20.09,0,0,1,0-3.78,3.24,3.24,0,0,1,.73-2.22,1.25,1.25,0,0,1,1-.49,2.62,2.62,0,0,0,1.74,2.54l1.5.75c.52.33.52.41.52.57s-.46.33-.84.33A4.46,4.46,0,0,1,228,68L228,71.49a7,7,0,0,0,3.17.74c1.74,0,3.59-.81,4.07-2.38a4.68,4.68,0,0,0,4.25,2.38A4.47,4.47,0,0,0,243,70.67ZM216.9,67.3c.22-.57.39-1.07.7-2,.21.9.32,1.47.42,1.89A5,5,0,0,1,216.9,67.3Zm21.31-.9c0-1.15.41-1.65.83-1.65.14,0,.45-.08.59.5a2.14,2.14,0,0,1,.1.49c0,.33-.17.41-.38.41v.08a9.55,9.55,0,0,0-1.14.42Zm4,2.38a3,3,0,0,1-2.12,1.07,1.6,1.6,0,0,1-1.36-1.07c.73-.25,3.55-1.32,4.35-1.65,0,.66,0,1.4,0,1.4v1.4Zm13,1.15a.79.79,0,0,1-.83-.82c0-.33.13-.82,1.18-1.15,0,.41.07.74.07.74V69c0,.25,0,.49.07.74C255.5,69.85,255.33,69.85,255.15,69.93Z"/><path class="cls-1" d="M234.06,63.43a6.42,6.42,0,0,0-1.71-.24,5.34,5.34,0,0,0-2.19.49,2.58,2.58,0,0,0-1.35,1.9,1.94,1.94,0,0,0,1.39,2c.59.33,1.15.66,1.5.82s.87.5.83,1.07-.56,1-1.43,1a4.3,4.3,0,0,1-2.5-1.15l0,1.73a6,6,0,0,0,2.57.49c1.6,0,3.59-.74,3.62-2.55a2.32,2.32,0,0,0-1.53-2.22c-.59-.25-1.19-.58-1.46-.66s-.84-.33-.8-1,.73-.82,1.42-.82a3.49,3.49,0,0,1,1.64.41"/><path class="cls-1" d="M219.76,60.39l-3.69.5a6.94,6.94,0,0,1-.45,2.63c-.76,2.21-2,5.92-3,8.06h2.3a11.13,11.13,0,0,1,.65-2.3l3.42-.09a19.9,19.9,0,0,1,.41,2.39h3.1a33.87,33.87,0,0,1-1.18-4.12Zm-3.69,7.48L217.74,63l1,4.77"/><path class="cls-1" d="M228.6,63.43l-.07,1.65a2.1,2.1,0,0,0-1.81.66,3.65,3.65,0,0,0-.87,2.55,28,28,0,0,0,0,3.29h-2.6a23.68,23.68,0,0,0,.27-3.21l.07-1.31a13.53,13.53,0,0,0-.1-3.13l2.3-.08a4.53,4.53,0,0,1,.13,1.48C226.89,63.76,227.87,63.43,228.6,63.43Z"/><path class="cls-1" d="M261.42,60.89l-2.37-.42a29.14,29.14,0,0,1,.45,2.88l.56,5.18a23.06,23.06,0,0,1,.18,3h2.57a19.82,19.82,0,0,1-.45-3"/><path class="cls-1" d="M250.8,71.58c-.13-1-.2-2-.24-3l-.1-2.71a2.15,2.15,0,0,0-2.31-2.3,3,3,0,0,0-2.43,1.23,5.92,5.92,0,0,0-.28-1.23l-2.08-.09a21.21,21.21,0,0,1,.27,3l0,2.06a30.48,30.48,0,0,1-.07,3h2.61a29.4,29.4,0,0,1-.25-3l-.07-2.3a1.3,1.3,0,0,1,1.22-1.4c.73,0,1.09.5,1.12,1.24l.11,2.46c0,1.07,0,2.06,0,3"/><path class="cls-1" d="M259,71.58a10.16,10.16,0,0,1-.56-2.88l-.14-1.65c-.14-2-1-3.29-4.18-3.29a9.42,9.42,0,0,0-2,.25l.1,1.48a4,4,0,0,1,2.16-.74A1.53,1.53,0,0,1,256,66.39a7.28,7.28,0,0,0-2.47.66,2.66,2.66,0,0,0-1.88,2.55,2.3,2.3,0,0,0,2.61,2.15,2.87,2.87,0,0,0,2.23-1,3.93,3.93,0,0,0,.28.82Zm-3.8-1.07a1.29,1.29,0,0,1-1.42-1.32c0-.9.55-1.64,2.33-1.89l.1,1.4c0,.49,0,.82.11,1.23A1.72,1.72,0,0,1,255.15,70.51Z"/><path class="cls-1" d="M241.2,63.68a3.5,3.5,0,0,0-2-.58,3.94,3.94,0,0,0-3.9,4.36,4,4,0,0,0,4.18,4.2,4.07,4.07,0,0,0,3.13-1.31l-.52-.75a3,3,0,0,1-2,.83,2.49,2.49,0,0,1-2.15-2l4.72-1.73A4.06,4.06,0,0,0,241.2,63.68Zm-1.64,3-1.88.74a8.47,8.47,0,0,1-.07-1.07c0-1.89,1-2.22,1.4-2.22a1.1,1.1,0,0,1,1.22.91C240.43,65.82,240.36,66.48,239.56,66.72Z"/><path class="cls-1" d="M228.42,88.15,230,85.72l5.65,3.71-1.58,2.43Z"/><path class="cls-10" d="M227.9,87.32l1.1-1.69,7.17,4.73L235.08,92Z"/><path class="cls-1" d="M240.49,95.88l1.59-2.44,5.65,3.72-1.59,2.44Z"/><path class="cls-10" d="M240,95.05l1.1-1.68,7.17,4.72-1.09,1.67Z"/><ellipse class="cls-1" cx="303.32" cy="88.06" rx="41.98" ry="41.93"/><path class="cls-16" d="M298.88,46.32a42.27,42.27,0,0,1,17.72,2,42,42,0,0,1,28.13,35.5,43.92,43.92,0,0,1-.66,12.79,42.06,42.06,0,0,1-21.95,28.83,42,42,0,0,1-38.85-.46,42,42,0,0,1-21.73-32.53,42.73,42.73,0,0,1,1.78-17.26,41.9,41.9,0,0,1,35.56-28.89Zm-1.54,1.26a40.84,40.84,0,0,0-34.2,32.64c-.83,3.79-.66,7.7-.57,11.55a40.77,40.77,0,0,0,36.65,37c1.95.1,3.91.07,5.86.07a33.14,33.14,0,0,0,8.35-1.19,40.8,40.8,0,0,0,30.28-36.08c0-3.58.24-7.21-.48-10.74a40.15,40.15,0,0,0-7.54-17.32,40.78,40.78,0,0,0-15.82-12.72A37.87,37.87,0,0,0,304,47.31,44.87,44.87,0,0,0,297.34,47.58Zm-20.76,65.17a11.7,11.7,0,0,1,2.4-2.62c.84.68,1.56,1.5,2.34,2.25l-.71.81c-.54-.3-1-.88-1.69-.75.3.49.63,1,1,1.42a8.9,8.9,0,0,1-.9.61c-.34-.26-.61-.69-1.05-.77-.54.39-.94,1-1.58,1.22l.11-.13c.47-.53,1-1,1.49-1.52.42.35.83.71,1.25,1l.38-.64c-.33-.34-.65-.7-1-1.05.23-.24.47-.47.71-.71l1.15,1,.51-.5a11.71,11.71,0,0,0-2-2C278.16,111.21,277.4,112,276.58,112.75Zm50.21-2.6c.41,0,.81,0,1.21,0,.66.18.83,1,1.36,1.34.36.28.82.49,1,.93a1.6,1.6,0,0,1-.26,1.62,20,20,0,0,1-2,1.94c-.89-.82-1.72-1.7-2.59-2.54l-1.07-1.14C325.27,111.61,326,110.8,326.79,110.15Zm0,.33a22.11,22.11,0,0,0-1.89,1.86c1,1.18,2.18,2.25,3.3,3.35.8-.86,2.23-1.6,2-3-.05-.63-.76-.78-1.18-1.11a11.54,11.54,0,0,0-.84-1.11A1.16,1.16,0,0,0,326.77,110.48Zm-45.63,3a16.35,16.35,0,0,1,2,0A8.2,8.2,0,0,1,281.14,113.49Zm1,1.3a1,1,0,0,1,1.13.44,2,2,0,0,1-2,2.41C280.14,116.88,281.1,115.18,282.11,114.79Zm.19.21c-.7.14-1.1.87-1.36,1.48a.71.71,0,0,0,.85.92,2.38,2.38,0,0,0,1.33-1.43A.72.72,0,0,0,282.3,115Zm35.77,2.38c-.4-.76.68-1,1.14-1.31.71,1,1.17,2.12,1.89,3.09.56.2,1.06-.33,1.56-.51.18.36.61.76.39,1.18a18.8,18.8,0,0,1-2.68,1.57C319.64,120,318.78,118.75,318.07,117.38Zm.08-.47a31.46,31.46,0,0,0,2.36,4.15c.83-.42,1.63-.91,2.42-1.39l-.36-.73a12.94,12.94,0,0,1-1.38.72c-.25-.06-.31-.38-.46-.56-.5-.9-1-1.8-1.55-2.67Zm-32.27-.37c1.2-.24,2.75,0,3.23,1.33a3.7,3.7,0,0,1,0,2.21c-.07.31-.36.51-.56.74.51-1,.91-2.25.17-3.22-.58-.9-1.72-1-2.67-1Zm4.19,1.56h.37c.8.3,1.6.64,2.42.87l.66.22a2.54,2.54,0,0,1-.28,1.15,5.11,5.11,0,0,0-.95-.1,2.76,2.76,0,0,0-.59,1.2,13.56,13.56,0,0,1-.82,2.2c-.45-.12-1.12-.08-1.38-.5a5,5,0,0,1,.67-2.21c.13-.18.24-.36.37-.53-.31.87-.62,1.75-.9,2.63l1.09.44c.49-1.18.88-2.4,1.34-3.6l1.07.22c.05-.24.1-.48.14-.71a29.46,29.46,0,0,0-3-1.05c-.09.13-.26.4-.34.53.31.21.63.42.93.65,0,.07-.07.2-.09.26l-1-.65Zm-8.92.84a8.68,8.68,0,0,1,1.69,0A5.32,5.32,0,0,1,281.15,118.94Zm36.63,1.48q.59.06,1.17.15A2.76,2.76,0,0,1,317.3,123a2.42,2.42,0,0,1-2.42-.42,3.12,3.12,0,0,0,2.67.06,2.61,2.61,0,0,0,1.16-1.87l-.68-.06c-.17.26-.34.52-.52.78C317.59,121.13,317.68,120.77,317.78,120.42Z"/><path class="cls-17" d="M297.34,47.58a44.87,44.87,0,0,1,6.66-.27,37.87,37.87,0,0,1,15.87,3.46,40.85,40.85,0,0,1,15.82,12.71,40.19,40.19,0,0,1,7.54,17.33c.72,3.53.52,7.16.48,10.74a40.8,40.8,0,0,1-30.28,36.08,32.68,32.68,0,0,1-8.35,1.18c-1.95,0-3.91,0-5.86-.06a40.77,40.77,0,0,1-36.65-37c-.09-3.85-.26-7.76.57-11.55a40.84,40.84,0,0,1,34.2-32.64Zm3.91,1.48c0,2.87,0,5.73,0,8.59a42.73,42.73,0,0,0,5.77,0,6.24,6.24,0,0,0,0-2.32c-.83-.08-1.66-.11-2.49-.12-.18-2,.08-4.11-.14-6.16C303.34,49,302.29,49,301.25,49.06Zm-8.11,1.16a5.31,5.31,0,0,0,.14,1.64c.48,2.25.83,4.53,1.39,6.76A39,39,0,0,0,300,57.55a13.47,13.47,0,0,0-.38-1.87,7,7,0,0,0-.78.11c-.6,0-1.2,0-1.8-.07,0-.21.07-.43.11-.64a2.46,2.46,0,0,0,.91-.5l1.12-.19a4.61,4.61,0,0,0-.39-2l-1.06.22a3.54,3.54,0,0,1-1.51-.29,10.11,10.11,0,0,0,1.18-.73,7.52,7.52,0,0,0,1.26-.33c-.2-.6-.09-1.44-.57-1.87C296.44,49.57,294.82,50.05,293.14,50.22Zm17.21.33a2.57,2.57,0,0,0-1.13,3.23,7.08,7.08,0,0,0,1.85,2,2.19,2.19,0,0,1-.77,1c-.24-.44-.47-.89-.68-1.35a5.71,5.71,0,0,0-1.76.54,4.06,4.06,0,0,0,.68,1.55,3.46,3.46,0,0,0,3.86,1,2.64,2.64,0,0,0,1.66-2.76,3.12,3.12,0,0,0-1-1.71,8.28,8.28,0,0,0,1.68-.63C315.19,51.12,312.25,49.47,310.35,50.55Zm-23.1,2a12.83,12.83,0,0,0,1,2.14c-.15.25-.16.63-.44.78a5.21,5.21,0,0,1-.79,0c-.37-.75-.68-1.53-1.07-2.26a9.32,9.32,0,0,0-2.49,1.23c.69,1.53,1.42,3.05,2.15,4.56A25.74,25.74,0,0,0,287,62a10.15,10.15,0,0,0,2.45-1.15,20.48,20.48,0,0,0-1-2.17c0-.28.08-.55.11-.83l.9-.42c.45.91.83,1.86,1.31,2.76a9.24,9.24,0,0,0,2.5-1.13c-1.08-2.57-2.38-5-3.54-7.59A8.59,8.59,0,0,0,287.25,52.52Zm30.46.84c-1,2.13-2.16,4.18-3.13,6.34a39,39,0,0,0,4.86,2.48,6.65,6.65,0,0,0,.84-1.79c-.6-.32-1.2-.6-1.8-.91,0-.34,0-.68.07-1l1.42.3.8.41a5,5,0,0,0,.89-1.85q-.81-.45-1.65-.87l-.06-.7,1.29.17q.5.26,1,.48a6,6,0,0,0,.89-1.84c-1.52-.77-3-1.59-4.56-2.3C318.09,52.39,318,53,317.71,53.36ZM279,57.55a4.4,4.4,0,0,0-2.73,5.33,5.64,5.64,0,0,0,2.41,3c2.33,1.28,5.82,0,6.32-2.78l.24,0c.05-.74.42-1.84-.25-2.35l-.16-.4a9.24,9.24,0,0,0-1.88.39c.14,1.05.15,2.37-1,2.89a.76.76,0,0,0-1,0A3.76,3.76,0,0,1,279,62a1.77,1.77,0,0,1,.27-2.21,7.87,7.87,0,0,0,2.11-.25l.27,0a8.72,8.72,0,0,0,.23-2.16A7,7,0,0,0,279,57.55Zm47.35,1.86c-2,1.07-4,2-5.91,3.13.41.46.79,1.05,1.4,1.24a6,6,0,0,0,1.07-.46c.37.07.81,0,1.1.31s.23.87.26,1.3-.39.66-.12.94a7.34,7.34,0,0,0,1.93,1.67c.65-2,1.3-3.89,1.91-5.84a31,31,0,0,0,1.11-3.63A16.64,16.64,0,0,0,326.35,59.41Zm-24-.56a28.59,28.59,0,0,0-13.64,3.81,29.3,29.3,0,0,0-6.7,45.52,28.93,28.93,0,0,0,17.28,8.87A29.26,29.26,0,0,0,318.8,63.39,28.86,28.86,0,0,0,302.32,58.85ZM268.6,75.25a4.09,4.09,0,1,0,4.47,1.49A4.12,4.12,0,0,0,268.6,75.25Zm66.8,0a4.08,4.08,0,1,0,5.2,3.64A4,4,0,0,0,335.4,75.25ZM267.81,93.66c-.52,0-1.21,0-1.44.53-.27.74-.55,1.49-.87,2.21-.25.56.22,1,.59,1.36a3.16,3.16,0,0,0-.13,1.18c.14.41.56.61.87.88.47.32.85.77,1.33,1.1s1,0,1.45-.18c.41.26.93.62,1.43.31.66-.43,1.32-.87,2-1.26.53-.33.38-1,.34-1.56.41-.26.91-.63.78-1.2-.21-.8-.44-1.6-.62-2.41-.15-.55-.81-.62-1.27-.73-.19-.47-.39-1.11-1-1.13-.85,0-1.69-.12-2.53-.15C268.19,92.62,268,93.24,267.81,93.66Zm67.31-.79c-.39.18-.43.66-.56,1-.5.12-1.22.14-1.36.75-.18.81-.41,1.61-.61,2.42-.1.56.39.93.78,1.25,0,.45-.19,1,.19,1.36s.9.53,1.33.84.9.75,1.5.65a2.93,2.93,0,0,0,.75-.51c.46.28,1.07.6,1.56.2s1.18-1,1.8-1.48.26-1.09.14-1.61c.42-.32.87-.82.6-1.37-.32-.74-.59-1.49-.89-2.24-.25-.55-.9-.51-1.41-.51-.17-.39-.32-.92-.8-1a14.22,14.22,0,0,0-1.73.09A3.1,3.1,0,0,0,335.12,92.87Zm-8.33,17.28c-.83.65-1.52,1.46-2.3,2.17l-.59.56c-.25.26-.51.52-.78.77.46,1.23,1.93,2,1.91,3.38l-.55-.06c-.79-.82-1.37-1.81-2.07-2.69a4.79,4.79,0,0,0-1.4.92,13.29,13.29,0,0,0,2.17,2.76l.16.29a2,2,0,0,0,3-.86c.47-.08.47-1.17,0-1.27a2.13,2.13,0,0,0-.47-.89,3.91,3.91,0,0,1-.34-1.77c.87.83,1.7,1.72,2.59,2.54a20,20,0,0,0,2-1.94,1.6,1.6,0,0,0,.26-1.62c-.2-.44-.66-.65-1-.93-.53-.37-.7-1.16-1.36-1.34C328,109.69,326.88,109.69,326.79,110.15Zm-50.21,2.6c-.37.34-.71.7-1.05,1.07l.93,1-.11.13c.64-.24,1-.83,1.58-1.22.44.08.71.51,1.05.77l-.12.07c.2.12.4.24.59.37a3.12,3.12,0,0,0,0,2.4l.1-.23a2.69,2.69,0,0,0,3.72,1.36l.62.09a2.82,2.82,0,0,0,4.69,2.29c.2-.23.49-.43.56-.74.28-.39.67-.7,1.14-.4,0,.41-.06.82-.07,1.24a5,5,0,0,0-.67,2.21c.26.42.93.38,1.38.5a13.56,13.56,0,0,0,.82-2.2,3.07,3.07,0,0,1,1.67-1.08l-.13,0a2.55,2.55,0,0,0,.28-1.16l-.66-.21a2.87,2.87,0,0,0-2.42-.87h-.37c-.32-.06-.64-.14-.95-.23-.48-1.29-2-1.57-3.24-1.33a3.06,3.06,0,0,0-.94.26,4,4,0,0,0-.32-1.8c0,.09-.11.28-.14.38a2.57,2.57,0,0,0-1.57-1.57,2.66,2.66,0,0,0-2.09.21l-.81-.18.6-.65c.24-.27.48-.54.71-.82-.78-.74-1.5-1.56-2.34-2.24A11.7,11.7,0,0,0,276.58,112.75Zm4.56.74a8.2,8.2,0,0,0,2,0A16.35,16.35,0,0,0,281.14,113.49Zm36.93,3.89c.71,1.37,1.57,2.65,2.3,4a18.8,18.8,0,0,0,2.68-1.57c.22-.42-.21-.82-.38-1.18-.51.18-1,.7-1.57.51-.72-1-1.18-2.11-1.89-3.09C318.76,116.4,317.67,116.62,318.07,117.38Zm-4.57,2.77a2.28,2.28,0,0,0,.92,2c.15.14.3.28.46.41a2.4,2.4,0,0,0,2.42.43,2.76,2.76,0,0,0,1.65-2.42q-.58-.09-1.17-.15c-.1.35-.19.71-.27,1.06l-.21.31c-.38-.11-.77-.2-1.14-.34a3.5,3.5,0,0,1-.77-1.48,4.81,4.81,0,0,1,.67-.81,5.66,5.66,0,0,1,1.41.26,2.22,2.22,0,0,0,.56-1.21,3.63,3.63,0,0,0-1.85-.55A3,3,0,0,0,313.5,120.15Zm-32.35-1.21a5.32,5.32,0,0,0,1.69,0A8.68,8.68,0,0,0,281.15,118.94Zm13,.44.17.05a12.57,12.57,0,0,0-.35,1.34,1.87,1.87,0,0,0-.38,1.64,7.1,7.1,0,0,0-.4,2.09c0,.38.61.47.77.17a5.11,5.11,0,0,0,.87.25,1.33,1.33,0,0,0,1.79,0,2.47,2.47,0,0,0,.69-2.4l.08-.28.34-.14a1.66,1.66,0,0,0-.91-2.19A3.79,3.79,0,0,0,294.16,119.38Zm6.2.53c-.63,1.16-1.16,2.36-1.78,3.53a6,6,0,0,0-.78,1.94c.06.43,1,.42,1,0l.81-1c.68.07.82.81,1.06,1.31.51,0,1,.08,1.55.11-.22-1.09-.63-2.12-.93-3.18A13.38,13.38,0,0,0,300.36,119.91Zm6.33.34c-.29.55,0,1.17.06,1.74.26,1.07.1,2.25.68,3.22l0,.22.12.16a4.6,4.6,0,0,0,2.54-.48c.23,0,.46-.1.68-.16-.06-.43-.12-.86-.19-1.29a6.2,6.2,0,0,0-1.49-.1,17.85,17.85,0,0,1-.24-1.93c-.08-.28,0-.77-.39-.82l-.09-.74A1.78,1.78,0,0,0,306.69,120.25Zm-3.73.15a5.31,5.31,0,0,0,.19,2.21c0,.45,0,.9.05,1.34a3.17,3.17,0,0,0-.06,1.88,14.68,14.68,0,0,0,3.5-.21c0-.45,0-.9,0-1.34l-1.72-.07a30.37,30.37,0,0,0-.09-3.82A4.81,4.81,0,0,0,303,120.4Zm3.67-54.95c.45.55.64,1.29,1.22,1.73,1.3,1.27,3.22,1.36,4.91,1.6a5.41,5.41,0,0,0,1.64,1.66,15.54,15.54,0,0,1-1.88,2.93c-.39-.26-.77-.85-1.29-.6a1.81,1.81,0,0,0-1,2,9.64,9.64,0,0,0,1.42,0c0,.36,0,.72,0,1.08s.08.88.13,1.33c-.71-.42-1.54-1.11-2.42-.71s-.93,1.81-.67,2.71a2.13,2.13,0,0,0,1.33,1.4,2.86,2.86,0,0,0,1.64-.84c.14.37.29.73.42,1.1a2.52,2.52,0,0,1-.57,1.93,3.68,3.68,0,0,1-2.62.77c-.19,1.28.77,2.26.92,3.47a18.44,18.44,0,0,0,1.76,6.32,4.47,4.47,0,0,0,3.14,2.53,2.9,2.9,0,0,0,2.95-1,3.68,3.68,0,0,0,.26-3.09c-.65-1.88-2.38-3.08-3.19-4.86a3.38,3.38,0,0,1,.22-3.3,22.45,22.45,0,0,1,3.43-3.32,3.71,3.71,0,0,0,1.23-2.05,2.25,2.25,0,0,0-2.72-2.32c-.73.18-1,.91-1.37,1.5l-.42.69a9.54,9.54,0,0,1,.14-1.93,7.14,7.14,0,0,1,.67-.89,3.5,3.5,0,0,1,5.49,4.31c-1.08,1.75-3,2.69-4.46,4.05a4.82,4.82,0,0,0-1.07,1.57,5.47,5.47,0,0,1,3.49-1.34,3.59,3.59,0,0,1,2.47,1.58A3.18,3.18,0,0,1,321,89.1l-.16.17c.13-.85.44-1.85-.19-2.57a2.11,2.11,0,0,0-3.3-.13,2.46,2.46,0,0,0-.42,1.72c1,1.41,2.38,2.65,2.79,4.41a3.39,3.39,0,0,1-1.48,3.93A6.31,6.31,0,0,1,313,96.5l-.49-.27c-.46-.3-.92-.59-1.39-.86a5,5,0,0,0,2.06,3.39,4.69,4.69,0,0,0,3.7.45c-.32.41-.66.81-.94,1.25-1.56,2.16-1.48,5-1.32,7.48.08.73-.63,1-1.19,1s-.67.59-.92,1l-.13-.15-.1-.12c-.1-.27-.19-.55-.28-.83l-.6-.07c-.68,0-1,.57-1.24,1.08l-.46.37c0-.54-.06-1.07-.08-1.61-.42,0-.84.07-1.25.13a2.48,2.48,0,0,0-1,.41c-.17.4-.3.81-.46,1.22l-.28-.43c0-1-.64-2.44.42-3.16,1.22-.79,2.76-.5,4.13-.64a6.88,6.88,0,0,0,1.22-3.67,2.68,2.68,0,0,0-.87-2c-.69-.28-1.49-.13-2.18-.42-.62-.44-.72-1.3-1.27-1.8a5,5,0,0,0-1.67-.17,4.37,4.37,0,0,0-3.54,2.17c-.38.86.37,1.69,1.13,2,.38.17.77.3,1.15.45l-.53.23a4.59,4.59,0,0,0-2,1.2c-.81,1-.8,2.43-1.5,3.51-.47.67-1.41.45-2.08.74-.39.38-.42,1-.62,1.48-.14-.53-.27-1.07-.4-1.6-.45,0-.89,0-1.34,0a2.32,2.32,0,0,0-1.12,1.41l-.17.45-.23-.37c0-.51.06-1,.11-1.52-.55,0-1.11,0-1.66,0l-.47.3c-.47.21-.22,1.17-.82,1.06l0-.15c-.07-.87-.2-1.74-.25-2.62a1.08,1.08,0,0,1,.68-1.09c1.64-.63,3.55.35,5.11-.56s2.07-3.08,2.47-4.84c-.64-.47-1.62-.87-1.61-1.81a2.13,2.13,0,0,1,.81-1.94c1.95-1.74,4.63-2.25,6.77-3.68a2,2,0,0,0,1.06-2.18c-.17-.85-1-1.27-1.69-1.59a7.15,7.15,0,0,1,.12,1.9c-.48.69-1.44.64-2.16.9l-.46-.69c-.37-.56-.67-1.15-1-1.74a9.5,9.5,0,0,1-5,3.68,4.8,4.8,0,0,0-1.36-.92,2.66,2.66,0,0,0-3.14,2.42l-.52.14v-.19c0-.52-.08-1-.12-1.57a12,12,0,0,0-1.54.6c.07-.51.15-1,.23-1.51-.29.07-.58.13-.87.22l-.61.33a5.38,5.38,0,0,1,.66-1.65,7.27,7.27,0,0,0-1.24.18l-.29.1a2.32,2.32,0,0,1,1.7-1.68c1.55-.37,3.26.09,4.72-.7,1.17-.63,2.29-1.36,3.46-2,1.4-.83,2.86-1.55,4.18-2.5a11.59,11.59,0,0,1-2.75-.43c-.18-.33-.37-.66-.56-1a5,5,0,0,1-1.5,1.31,4.8,4.8,0,0,1-2,.33,11,11,0,0,1-1.12-.93c.6-.18,1.66.06,1.8-.77s-.45-1.23-1-1.49a20.8,20.8,0,0,0-3-.85c0,2.58,0,5.15,0,7.73l-.74.11c-.16-2.66,0-5.34-.07-8l-.93-.1a1.65,1.65,0,0,1-1.11-.42c-.23-.48-.37-1-.57-1.48s.35-1.07.13-1.62a1.45,1.45,0,0,1,0-1.14,1.42,1.42,0,0,1,1.48-.57c.33,0,.66,0,1,0,0-.16,0-.47,0-.62l-1-.06a7,7,0,0,1-1.43-.24,4.36,4.36,0,0,1,.91-.47c-.23-.17-.45-.34-.66-.52a4.84,4.84,0,0,1-1-3.53,5.1,5.1,0,0,1,1.7-2.9,3.71,3.71,0,0,1,4.74,1.62,4.3,4.3,0,0,1-1.19,5c-.45.43-1.18.61-1.39,1.25a3.19,3.19,0,0,0,.28,1.07,6.62,6.62,0,0,0,1.72.7,12,12,0,0,1,2.36,1.08A15.69,15.69,0,0,1,298.75,80a5.2,5.2,0,0,1,.57,2.2A2.18,2.18,0,0,0,301,80.13c0-.53-.3-1.11,0-1.59a10.64,10.64,0,0,0,1.62-3.87c-1-.47-2.25-1-2.58-2.17l-.08-.19a6.09,6.09,0,0,0,1.41.78,3.16,3.16,0,0,0,1.35-.26,2.19,2.19,0,0,0,1.45-3.06c-.37-.78-1.34-.6-2-.62a2.93,2.93,0,0,1,2.7-1l1.2,0A6.28,6.28,0,0,1,306.63,65.45ZM290.75,69a7,7,0,0,0-.58.84c-.17.47.14.91.31,1.32a2.85,2.85,0,0,1,1.21,1.64,2.69,2.69,0,0,0,1.48-3.34A1.62,1.62,0,0,0,290.75,69Zm17.48,1.4c.51.64,1.45,1.33,2.28.88a2.67,2.67,0,0,1-1-1.25C309.07,70.08,308.33,69.77,308.23,70.39ZM310,70a.69.69,0,0,0,.67.85c.12-.3.23-.61.35-.91Q310.54,69.94,310,70Zm-20.6,5.85c0,.37,0,.74-.05,1.11a8,8,0,0,0,2.24,0C291.06,76.31,290.35,75.56,289.43,75.84Zm.24,1.63c-.45.13-.25.66-.32,1a2.74,2.74,0,0,0,2.3-.4A4.13,4.13,0,0,0,289.67,77.47Zm0,1.63c0,.17,0,.52,0,.7a4.81,4.81,0,0,0,1.75-.33A1.68,1.68,0,0,0,289.64,79.1Z"/><path class="cls-18" d="M301.25,49.06c1,0,2.09,0,3.14,0,.22,2,0,4.11.14,6.16.83,0,1.66,0,2.49.12a6.24,6.24,0,0,1,0,2.32,42.73,42.73,0,0,1-5.77,0C301.24,54.79,301.25,51.93,301.25,49.06Zm.2.16v8.3c1.81.13,3.63.07,5.44,0a7,7,0,0,0-.08-1.65l.08-.38c-.88,0-1.77,0-2.66,0-.12-2.07.07-4.15-.08-6.22l-.28-.15C303.06,49.14,302.25,49.14,301.45,49.22Zm-5.32,2.63a11.48,11.48,0,0,1,1.29-.3,10.11,10.11,0,0,1-1.18.73,3.54,3.54,0,0,0,1.51.29l-1.4.29C296.28,52.52,296.2,52.19,296.13,51.85Zm-7.92,2.81.3.65-1.26.64-.27-.51a5.21,5.21,0,0,0,.79,0C288.05,55.29,288.06,54.91,288.21,54.66Zm31.71.62c.44.2.89.4,1.32.63L320,55.74l.06.7-.52-.28Zm3,8,.67-.31,1.06.88c-.12.35-.24.7-.37,1,0-.43.11-1-.26-1.3S323.28,63.39,322.91,63.32Zm-44,49.11c.67-.12,1.15.46,1.69.76l-.6.65.81.18a3.19,3.19,0,0,0-1.31,3.06l-.1.23a3.17,3.17,0,0,1,0-2.4c-.19-.13-.39-.25-.59-.37l.12-.07a8.9,8.9,0,0,0,.9-.61C279.55,113.39,279.22,112.92,278.92,112.43Zm34.58,7.72a3,3,0,0,1,2.68-2.49,3.63,3.63,0,0,1,1.85.55,2.22,2.22,0,0,1-.56,1.21,5.66,5.66,0,0,0-1.41-.26,4.76,4.76,0,0,0-.66.81,3.38,3.38,0,0,0,.76,1.48c.37.14.76.23,1.14.34-.52,0-1.21.2-1.55-.33s-.83-1.56-.25-2.2,1.3-.23,1.94-.24c.11-.22.23-.43.35-.64-.63-.21-1.29-.61-2-.39a2.37,2.37,0,0,0-1.92,2.38,4.68,4.68,0,0,0,.52,1.78A2.28,2.28,0,0,1,313.5,120.15Zm-19.34-.77a3.79,3.79,0,0,1,2.67.56c-.83-.19-1.68-.29-2.5-.51Zm12.53.87a1.78,1.78,0,0,1,1.7-.18l-1.58.32c.08,1.62.5,3.21.62,4.82-.58-1-.42-2.15-.68-3.22C306.67,121.42,306.4,120.8,306.69,120.25Zm-3.73.15a4.81,4.81,0,0,1,1.89,0,30.37,30.37,0,0,1,.09,3.82l1.72.07c0,.44,0,.89,0,1.34a14.68,14.68,0,0,1-3.5.21,3.17,3.17,0,0,1,.06-1.88l.2-.1c0,.51,0,1,0,1.52s1,.27,1.41.14.95,0,1.43,0h.26c0-.36-.05-.71-.07-1.06l-1.7,0a33,33,0,0,0-.17-3.85c-.48,0-1,0-1.45,0v2A5.31,5.31,0,0,1,303,120.4Zm-7.5.27c.4,0,1,.27.85.76,0,.53-.63.37-.95.45C295.39,121.48,295.42,121.08,295.46,120.67Z"/><path class="cls-19" d="M301.45,49.22c.8-.08,1.61-.08,2.42-.09,0,.23,0,.46,0,.69a4.27,4.27,0,0,0-1.94-.18c0,2.47,0,4.94,0,7.41v.2a15,15,0,0,0,4.58-.12c.11-.41.23-.82.33-1.23a6.51,6.51,0,0,1,.09,1.65c-1.81,0-3.63.1-5.44,0C301.44,54.75,301.45,52,301.45,49.22Z"/><path class="cls-20" d="M303.87,49.13l.28.15c.15,2.07,0,4.15.08,6.22.89,0,1.78,0,2.66,0,0,.1-.06.29-.09.38-.1.41-.22.82-.33,1.23,0-.38-.08-.76-.11-1.14-.86,0-1.71-.06-2.57-.06-.07-2-.08-4.08,0-6.11C303.84,49.59,303.85,49.36,303.87,49.13Z"/><path class="cls-21" d="M293.15,50.22c1.67-.17,3.29-.65,5-.86.48.42.37,1.26.57,1.86a7.52,7.52,0,0,1-1.26.33c-.43.08-.87.18-1.29.3.07.34.15.67.22,1l1.4-.28,1.06-.23a4.63,4.63,0,0,1,.39,2c-.37.05-.75.11-1.12.19s-.89.17-1.33.28l.18,1.26a10.65,10.65,0,0,0,1.94-.34,6.49,6.49,0,0,1,.77-.11,13.47,13.47,0,0,1,.38,1.87,39,39,0,0,1-5.35,1.07c-.56-2.23-.91-4.51-1.38-6.75A4.84,4.84,0,0,1,293.15,50.22Zm.47.45A8.67,8.67,0,0,0,293.8,52c.43,2,.77,4,1.24,6.06a35.29,35.29,0,0,0,4.18-.77c.48-.11.1-.73.12-1-.91,0-1.78.34-2.69.4-.15-.71-.3-1.42-.42-2.13.83-.19,1.67-.36,2.5-.56-.06-.34-.13-.68-.2-1-.85.08-1.68.25-2.53.38a7.59,7.59,0,0,1-.29-1.89c.81-.15,1.61-.33,2.41-.52-.07-.35-.14-.69-.22-1C296.46,50.08,295.05,50.41,293.62,50.67Zm24.09,2.69c.25-.38.38-1,.85-1.11,1.54.71,3,1.53,4.56,2.3a6,6,0,0,1-.89,1.84q-.5-.22-1-.48c-.43-.23-.88-.43-1.32-.63l-.43.88.52.28q.84.42,1.65.87a5,5,0,0,1-.89,1.85l-.8-.41c-.47-.26-.94-.5-1.42-.74l-.61,1.19.54.28,1.8.91a6.94,6.94,0,0,1-.83,1.79,38.43,38.43,0,0,1-4.87-2.48C315.55,57.55,316.71,55.49,317.71,53.36Zm.88-.6c-1.16,2.24-2.32,4.46-3.4,6.73,1.3.81,2.7,1.43,4.05,2.14.16-.33.31-.66.44-1-.76-.41-1.52-.82-2.28-1.21a7.78,7.78,0,0,1,1-2c.78.36,1.52.78,2.31,1.1l.43-1c-.73-.41-1.47-.78-2.2-1.17a12.14,12.14,0,0,1,.81-1.71c.81.31,1.56.74,2.35,1.1a6.35,6.35,0,0,0,.4-1C321.19,54.08,319.88,53.44,318.59,52.76Zm7.76,6.65a16.64,16.64,0,0,1,2.75-1.34A31,31,0,0,1,328,61.7c-.61,1.95-1.26,3.89-1.91,5.84a7.34,7.34,0,0,1-1.93-1.67c-.27-.28.06-.64.12-.94s.25-.69.37-1L323.58,63l-.67.31a5.49,5.49,0,0,1-1.06.46c-.62-.19-1-.78-1.41-1.24C322.36,61.41,324.39,60.48,326.35,59.41Zm.63.19c-1.91,1-3.84,2-5.77,3a8.09,8.09,0,0,0,.67.76c.58-.25,1.16-.52,1.72-.82a8.87,8.87,0,0,1,1.45,1.29l-.57,1.69a4.79,4.79,0,0,0,1.42,1.15c.78-2.58,1.74-5.1,2.47-7.7A9.07,9.07,0,0,0,327,59.6Zm-32.65,59.83c.82.22,1.67.32,2.5.51a1.66,1.66,0,0,1,.91,2.19l-.34.14c.17-.59.31-1.37-.24-1.8a6.71,6.71,0,0,0-2.67-.75c-.33,1.52-.81,3-1,4.55a6.24,6.24,0,0,0,2.84.47c.87-.37.69-1.46,1-2.19a2.47,2.47,0,0,1-.69,2.4c-.59,0-1.19,0-1.79,0a5.38,5.38,0,0,1-.87-.25,1.12,1.12,0,0,0-.77-.17,7.1,7.1,0,0,1,.4-2.09,15.57,15.57,0,0,0,.38-1.64A12.57,12.57,0,0,1,294.33,119.43Z"/><path class="cls-22" d="M301.89,49.64a4.27,4.27,0,0,1,1.94.18c-.12,2-.11,4.07,0,6.11.85,0,1.71,0,2.57.06,0,.38.07.76.11,1.14-1.53-.09-3.06,0-4.59-.08C301.89,54.58,301.88,52.11,301.89,49.64Zm-8.27,1c1.43-.25,2.84-.58,4.28-.78.08.34.15.68.22,1-.8.2-1.61.38-2.42.53a8.1,8.1,0,0,0,.3,1.89c.84-.13,1.68-.3,2.53-.39.07.34.13.68.2,1-.83.2-1.67.37-2.5.56q.18,1.07.42,2.13c.91-.06,1.78-.35,2.69-.4,0,.32.36.94-.12,1a35.45,35.45,0,0,1-4.19.77c-.46-2-.8-4-1.24-6.06A8.62,8.62,0,0,1,293.62,50.66Zm16.78.4a2.71,2.71,0,0,1,4,1.69c-.3.12-.59.23-.89.33-.24-.56-.46-1.33-1.2-1.35-.76-.18-1.23.75-.87,1.36s1.25,1.11,1.75,1.78a2,2,0,0,1-.28,2.8,2.89,2.89,0,0,1-3.19.23,3.13,3.13,0,0,1-1.31-1.69,2.22,2.22,0,0,1,.92-.11c.38.47.7,1.2,1.43,1.13a1,1,0,0,0,.82-1.59c-.62-.79-1.66-1.27-2-2.29A2.14,2.14,0,0,1,310.4,51.06Zm8.19,1.7c1.29.68,2.6,1.32,3.89,2a6.85,6.85,0,0,1-.4,1c-.79-.35-1.54-.78-2.35-1.09a12.14,12.14,0,0,0-.81,1.71c.73.39,1.47.76,2.19,1.17l-.42,1c-.79-.31-1.54-.73-2.31-1.09a7.78,7.78,0,0,0-1,2c.76.39,1.52.8,2.28,1.21-.14.33-.29.66-.44,1-1.36-.71-2.75-1.33-4.05-2.14C316.27,57.22,317.43,55,318.59,52.76Zm-41.5,7a4,4,0,0,1,4.33-1.89L281.33,59a3.41,3.41,0,0,0-2.32.53,2,2,0,0,0-.53,2.46,3.76,3.76,0,0,0,2.69,2.26,2,2,0,0,0,2-1,4.81,4.81,0,0,0,.37-2c.21-.33.7-.14,1-.23a6.2,6.2,0,0,1-.21,2.54,3.82,3.82,0,0,1-3.44,2.35C277.94,66.18,275.45,62.35,277.09,59.76ZM327,59.6a8.66,8.66,0,0,1,1.39-.62c-.73,2.6-1.69,5.12-2.48,7.7a4.88,4.88,0,0,1-1.41-1.15c.19-.56.37-1.13.57-1.69a8.54,8.54,0,0,0-1.46-1.29c-.56.3-1.13.57-1.72.82a9.83,9.83,0,0,1-.67-.76C323.14,61.62,325.07,60.63,327,59.6Zm-2.57,2.5c.3.28.61.54.93.79a7.16,7.16,0,0,0,.47-1.49A8.71,8.71,0,0,0,324.41,62.1Z"/><path class="cls-23" d="M310.35,50.55c1.9-1.08,4.84.57,4.39,2.87-.57,0-1.13,0-1.7.09-.14-.41-.29-.81-.43-1.21l-.82,0c-.07.87.72,1.29,1.27,1.79a3.1,3.1,0,0,1,1,1.71,2.62,2.62,0,0,1-1.65,2.76,3.46,3.46,0,0,1-3.86-1,4.06,4.06,0,0,1-.68-1.55,5.65,5.65,0,0,1,1.75-.54c.22.46.45.91.69,1.36a1.72,1.72,0,0,0,1.12-.43l-.35-.63a6.94,6.94,0,0,1-1.85-2A2.56,2.56,0,0,1,310.35,50.55Zm0,.51a2.14,2.14,0,0,0-.83,2.29c.31,1,1.35,1.5,2,2.29a1,1,0,0,1-.82,1.59c-.73.07-1.05-.66-1.43-1.13a2.22,2.22,0,0,0-.92.11,3.13,3.13,0,0,0,1.31,1.69,2.89,2.89,0,0,0,3.19-.23,2,2,0,0,0,.28-2.8c-.51-.67-1.33-1-1.75-1.78s.11-1.54.87-1.36c.74,0,1,.79,1.2,1.35.3-.1.59-.21.89-.33A2.71,2.71,0,0,0,310.4,51.06Z"/><path class="cls-24" d="M287.25,52.52a8.59,8.59,0,0,1,2.5-1.1c1.16,2.54,2.46,5,3.54,7.59a9.24,9.24,0,0,1-2.5,1.13c-.48-.9-.86-1.85-1.31-2.76-.5-.18-1,.17-1.39.37.12.29.25.59.38.88a20.48,20.48,0,0,1,1,2.17A10.15,10.15,0,0,1,287,62a27.53,27.53,0,0,1-1.48-3c-.72-1.51-1.45-3-2.14-4.56a9.32,9.32,0,0,1,2.49-1.23c.39.73.7,1.51,1.07,2.26l.27.51c.42-.21.84-.42,1.25-.64-.09-.22-.19-.43-.29-.65A12.48,12.48,0,0,1,287.25,52.52Zm.61.21c.32,1,.84,1.84,1.19,2.8a13,13,0,0,1-2,1c-.5-.87-.88-1.81-1.35-2.69a13.55,13.55,0,0,0-1.65.73c1,2.33,2.14,4.59,3.24,6.88a12.94,12.94,0,0,0,1.62-.82c-.42-1-.94-2-1.37-3a16.94,16.94,0,0,1,2.08-1c.54,1,.9,2,1.53,3a16.56,16.56,0,0,0,1.57-.8c-1-2.29-2.1-4.57-3.26-6.79A12.45,12.45,0,0,0,287.86,52.73Z"/><path class="cls-25" d="M287.86,52.73a12.45,12.45,0,0,1,1.57-.73c1.17,2.22,2.22,4.5,3.26,6.79a16.56,16.56,0,0,1-1.57.8c-.63-.94-1-2-1.53-3a16.94,16.94,0,0,0-2.08,1c.43,1,.95,2,1.37,3a12.94,12.94,0,0,1-1.62.82c-1.09-2.29-2.24-4.55-3.24-6.87a12.21,12.21,0,0,1,1.65-.74c.48.88.85,1.82,1.35,2.69a13,13,0,0,0,2-1C288.7,54.57,288.18,53.69,287.86,52.73Z"/><path class="cls-26" d="M311.79,52.26l.82,0c.14.4.29.8.43,1.21.57,0,1.13-.07,1.7-.09a7.73,7.73,0,0,1-1.68.63C312.51,53.55,311.72,53.13,311.79,52.26Z"/><path class="cls-27" d="M296.75,54.87c.44-.11.88-.21,1.32-.28a2.32,2.32,0,0,1-.9.49c0,.21-.07.43-.11.64.6,0,1.2.05,1.8.07a10.55,10.55,0,0,1-1.93.34Z"/><path class="cls-28" d="M311.07,55.75c.12.21.24.42.35.63a1.72,1.72,0,0,1-1.12.43A2.27,2.27,0,0,0,311.07,55.75Z"/><path class="cls-29" d="M301.88,57.05c1.53.05,3.06,0,4.59.08a15,15,0,0,1-4.58.12Z"/><path class="cls-30" d="M279,57.55a7,7,0,0,1,2.92-.12,8.85,8.85,0,0,1-.23,2.17l-.27,0a2.48,2.48,0,0,0-2.11.25A1.77,1.77,0,0,0,279,62,3.76,3.76,0,0,0,281,63.71a.87.87,0,0,0,1,0c1.12-.52,1.11-1.84,1-2.89a9.24,9.24,0,0,1,1.88-.39l.16.4a11.79,11.79,0,0,1,0,2.3c-.5,2.75-4,4.06-6.32,2.78a5.64,5.64,0,0,1-2.41-3A4.4,4.4,0,0,1,279,57.55Zm-1.91,2.21c-1.64,2.59.86,6.42,3.85,6.13a3.8,3.8,0,0,0,3.43-2.35,6,6,0,0,0,.21-2.54c-.33.09-.83-.1-1,.23a4.66,4.66,0,0,1-.37,2,2,2,0,0,1-2,1A3.76,3.76,0,0,1,278.48,62a2.06,2.06,0,0,1,.53-2.46,3.41,3.41,0,0,1,2.32-.53l.09-1.09A4,4,0,0,0,277.09,59.76Zm29.71,60.63,1.59-.32.09.74A21.88,21.88,0,0,0,309,124c.53-.08,1.07-.17,1.6-.29.07.43.13.86.19,1.29-.22.06-.45.12-.68.16-.89.1-1.78.16-2.66.32l0-.22C307.31,123.6,306.89,122,306.8,120.39Zm.2.19q.33,2.3.72,4.59a24.34,24.34,0,0,0,2.82-.45c-.06-.25-.12-.49-.19-.74l-1.54.26c-.34-1.28-.39-2.61-.69-3.89Z"/><path class="cls-31" d="M288.09,57.75c.44-.2.89-.55,1.39-.37l-.9.42c0,.28-.07.55-.11.83C288.34,58.34,288.21,58,288.09,57.75Z"/><path class="cls-32" d="M317.94,59.2l.61-1.19c.48.24.95.48,1.42.74l-1.42-.3c0,.35-.05.69-.07,1Z"/><path class="cls-33" d="M302.32,58.85a28.86,28.86,0,0,1,16.48,4.54,29.23,29.23,0,0,1-19.54,53.66,29.22,29.22,0,0,1-25.07-25.5,29.62,29.62,0,0,1,1.43-13.18,29.32,29.32,0,0,1,13.06-15.71A28.59,28.59,0,0,1,302.32,58.85ZM300.15,60a27.71,27.71,0,0,0-9.92,3,28.36,28.36,0,0,0-13.39,14.93A28.67,28.67,0,0,0,276,95.66a28.34,28.34,0,0,0,10.5,15.23,28.18,28.18,0,0,0,43.82-15.23,28.3,28.3,0,0,0-12.87-32A28,28,0,0,0,300.15,60Zm23.75,52.93a18.67,18.67,0,0,1,2,2.35,2.25,2.25,0,0,1,.47.89c0,.43,0,.85,0,1.27a2,2,0,0,1-3,.86,3.56,3.56,0,0,0,1.86.06,1.68,1.68,0,0,0,.86-2.38,23.42,23.42,0,0,0-2-2.71l-.6.57c.61.95,1.41,1.77,2,2.75.28.58-.61,1.19-1,.7-.78-.82-1.34-1.82-2.09-2.66l-.95.74c.61.88,1.33,1.7,1.86,2.64A13,13,0,0,1,321,115.2a4.66,4.66,0,0,1,1.4-.92c.7.88,1.28,1.87,2.07,2.69l.55.06c0-1.4-1.45-2.15-1.91-3.38C323.38,113.4,323.65,113.14,323.9,112.88Zm-23.54,7a13.38,13.38,0,0,1,1,2.68c.3,1.06.71,2.09.92,3.18-.51,0-1-.06-1.54-.11-.25-.5-.39-1.24-1.06-1.31l-.81,1a4.44,4.44,0,0,0-1,0,6,6,0,0,1,.78-1.94C299.2,122.27,299.73,121.07,300.36,119.91Zm0,.63a39.35,39.35,0,0,0-2.26,4.67l.67,0,.55-1.06q.56.08,1.11.18l.37,1.05c.38,0,.77.07,1.15.09A34.78,34.78,0,0,0,300.34,120.54Z"/><path class="cls-34" d="M279.31,59.81a2.48,2.48,0,0,1,2.11-.25A7.87,7.87,0,0,1,279.31,59.81Z"/><path class="cls-35" d="M285,60.8c.67.51.3,1.61.25,2.35l-.25,0A11.05,11.05,0,0,0,285,60.8Z"/><path class="cls-36" d="M324.41,62.1a8.71,8.71,0,0,1,1.4-.7,7.16,7.16,0,0,1-.47,1.49C325,62.64,324.71,62.38,324.41,62.1Z"/><path class="cls-37" d="M281,63.71a.76.76,0,0,1,1,0A.87.87,0,0,1,281,63.71Z"/><path class="cls-38" d="M304.84,68.14c-.31-1.28.8-2.17,1.79-2.69a6.28,6.28,0,0,0-.58,2.66Zm-2.84,1h.15c.7,0,1.67-.16,2,.62a2.2,2.2,0,0,1-1.46,3.06,2.78,2.78,0,0,0,.55-2.39c-.16-.54-.79-.59-1.24-.77Z"/><path class="cls-39" d="M287.64,69.22a3.56,3.56,0,0,1,2.2-2.38,5.1,5.1,0,0,0-1.7,2.9,4.84,4.84,0,0,0,1,3.53A3.58,3.58,0,0,1,287.64,69.22Zm5.91,39c.55,0,1.1,0,1.66,0,0,.5-.1,1-.11,1.52l-.5-.32C294.44,108.82,294.25,108.23,293.55,108.24Z"/><path class="cls-40" d="M294.58,68.46c.77.07,1.12.84,1.4,1.46a4.19,4.19,0,0,1-.56,3.86,5.83,5.83,0,0,1-2.19,1.71,10.36,10.36,0,0,0-1.23-.75c.21-.64.94-.82,1.39-1.25A4.3,4.3,0,0,0,294.58,68.46Zm27.28,17a2.36,2.36,0,0,1,1.54,2.2,3.26,3.26,0,0,1-2.13,3.11A6.44,6.44,0,0,0,321,89.1,3.18,3.18,0,0,0,321.86,85.43Zm-19.3,18.66a4.59,4.59,0,0,1,2-1.2c.59.29,1.19.55,1.8.8-.9.46-2,.71-2.61,1.59s-.69,2.26-1.31,3.27c-.48.77-1.48.57-2.2.87a9.53,9.53,0,0,0-.58,1.45,6,6,0,0,1-1.3-1.05c.2-.49.23-1.09.62-1.48.67-.29,1.61-.07,2.08-.74C301.76,106.52,301.75,105.11,302.56,104.09Z"/><path class="cls-41" d="M290.75,69a1.61,1.61,0,0,1,2.41.46,2.68,2.68,0,0,1-1.47,3.34,2.85,2.85,0,0,0-1.21-1.64c.64,0,1.63,0,1.69-.84S291.42,69.13,290.75,69Z"/><path class="cls-42" d="M290.75,69c.67.14,1.57.46,1.42,1.32s-1.05.8-1.69.84c-.17-.41-.48-.85-.31-1.32A7,7,0,0,1,290.75,69Z"/><path class="cls-43" d="M308.23,70.39c.1-.62.84-.31,1.28-.37a2.67,2.67,0,0,0,1,1.25C309.68,71.72,308.74,71,308.23,70.39Z"/><path class="cls-44" d="M310,70q.51,0,1-.06c-.12.3-.23.61-.35.91A.69.69,0,0,1,310,70Z"/><path class="cls-45" d="M314.4,70.44c.42.39,1.07.66,1.2,1.26a17.87,17.87,0,0,1-1.18,2c-.36-.1-.72-.22-1.08-.3A1.66,1.66,0,0,0,313,74c-.6-.51-1,.35-1.33.76a9.64,9.64,0,0,1-1.42,0,1.81,1.81,0,0,1,1-2c.52-.25.9.34,1.29.6A15.54,15.54,0,0,0,314.4,70.44Zm-7.09,38.71a2.48,2.48,0,0,1,1-.41l.59.11.5.94c-.74.19-1,.9-1.31,1.52A4,4,0,0,1,307.31,109.15Z"/><path class="cls-46" d="M299.88,73.62a2,2,0,0,1,.17-1.12c.34,1.21,1.56,1.7,2.59,2.17A10.64,10.64,0,0,1,301,78.54c-.34.48,0,1.06,0,1.6a2.18,2.18,0,0,1-1.66,2.08,5.07,5.07,0,0,0-.58-2.2,15.19,15.19,0,0,0-2.38-2.43c1,.08,2,.26,3.07.32a17.67,17.67,0,0,0,1.74-2.72C300.67,74.74,300,74.35,299.88,73.62Zm17,2.27a2.26,2.26,0,0,1,2.73,2.33,3.77,3.77,0,0,1-1.23,2A22.06,22.06,0,0,0,315,83.59a3.36,3.36,0,0,0-.22,3.29c.81,1.78,2.54,3,3.19,4.86a3.64,3.64,0,0,1-.27,3.09,2.89,2.89,0,0,1-2.94,1,4.47,4.47,0,0,1-3.14-2.53,12.89,12.89,0,0,0,1.1.85,3.43,3.43,0,0,0,3.28.27,2,2,0,0,0,.8-2.4c-.39-1.34-1.48-2.29-2.29-3.37a5.16,5.16,0,0,1-1.09-4.92c.88-2,2.91-3.06,4.27-4.67a2.08,2.08,0,0,0,.47-1.36,1.33,1.33,0,0,0-1.7-.94c-.31.19-.61.4-.89.61C315.87,76.8,316.19,76.07,316.91,75.89Zm-26.55,4.49.94.1c.07,2.67-.09,5.35.07,8l.74-.11a6.52,6.52,0,0,0,1.28-.46c1.15-.64,2.18-1.47,3.29-2.2.93-.59,1.92-1.1,2.86-1.69a11.59,11.59,0,0,0,2.74.43c-1.31,1-2.77,1.67-4.17,2.5-1.17.64-2.29,1.37-3.46,2-1.46.79-3.17.33-4.72.7a2.32,2.32,0,0,0-1.7,1.68l-.06.24c-.36-.18-.13-.62-.09-.92.25-1.14,1.41-1.61,2.3-2.15C290.39,85.8,290.41,83.1,290.36,80.38Zm15.22,8.77c.71.31,1.52.73,1.69,1.58a2,2,0,0,1-1.06,2.18c-2.14,1.43-4.82,1.94-6.77,3.68a2.15,2.15,0,0,0-.82,1.94c0,.94,1,1.34,1.62,1.81-.4,1.76-.81,3.83-2.47,4.84s-3.47-.07-5.11.56a1.08,1.08,0,0,0-.68,1.09c0,.88.18,1.75.25,2.62a1.42,1.42,0,0,1-.42-1.07c0-1-.21-2.07.43-2.89a4.66,4.66,0,0,1,1.52-.65c1.25,0,2.83.55,3.81-.53a6.45,6.45,0,0,0,1.05-3.56c-.25-.71-1.22-1-1.39-1.81-.29-1.53.73-2.88,1.75-3.91a15.2,15.2,0,0,1,4.56-3.09c.72-.26,1.68-.21,2.16-.9A7.05,7.05,0,0,0,305.58,89.15Zm.76,8.89a5,5,0,0,1,1.68.17c.55.5.65,1.36,1.26,1.8.7.29,1.5.14,2.19.42a2.68,2.68,0,0,1,.87,2,7.05,7.05,0,0,1-1.22,3.67c-1.38.14-2.91-.15-4.13.64-1.06.72-.42,2.12-.42,3.16a3.46,3.46,0,0,1-.07-3.19c.89-1.08,2.44-.91,3.69-1.13.39,0,.45-.47.54-.78a5.75,5.75,0,0,0,0-1.94c-.06-.27-.13-.55-.2-.83l-1-.33a5.28,5.28,0,0,1-2.67-2.56C306.64,98.81,306.49,98.42,306.34,98Z"/><path class="cls-47" d="M314.42,73.66c.87.29,1.59-.47,2.27-.89a2.48,2.48,0,0,1-1.72,2.1l-.82-.12c-.39-.23-.75-.5-1.12-.75a1.66,1.66,0,0,1,.31-.64C313.7,73.44,314.06,73.56,314.42,73.66Z"/><path class="cls-48" d="M290.34,74.5l1,.06v.62l-1,0Z"/><path class="cls-49" d="M292,74.74a10.36,10.36,0,0,1,1.23.75c.28.32.52.67.77,1a6.29,6.29,0,0,1-1.72-.7A3.19,3.19,0,0,1,292,74.74Z"/><path class="cls-50" d="M314.15,74.75l.82.12c.33.11.65.26,1,.39a7.14,7.14,0,0,0-.67.89,6.15,6.15,0,0,1-1-.55A3.48,3.48,0,0,1,314.15,74.75Z"/><path class="cls-51" d="M268.6,75.25a4.09,4.09,0,1,1-2.87,4.3A4.13,4.13,0,0,1,268.6,75.25Zm-.63.87c.24.11.47.37.76.3.84-.17,1.69-.28,2.54-.41A3.3,3.3,0,0,0,268,76.12Zm-1.1,1c1.39.68,2.71,1.49,4.07,2.23l.24-1.11a10.47,10.47,0,0,0-3.55-1.92C267.37,76.62,267.12,76.89,266.87,77.16Zm2.26-.63c.33.28.67.68,1.15.6l2.29-.11a4.25,4.25,0,0,0-.6-.6A7,7,0,0,0,269.13,76.53Zm1.31.84a5.09,5.09,0,0,0,.94.72,14.62,14.62,0,0,0,1.75,0l-.3-.68A7.37,7.37,0,0,0,270.44,77.37Zm-4.11,1.25a15.35,15.35,0,0,0,4.15,2c0-.36.47-.85.07-1.13a22.2,22.2,0,0,0-3.83-2.09A5,5,0,0,0,266.33,78.62Zm6.25-.33a10,10,0,0,1-1.41,4.07,3.54,3.54,0,0,0,2.1-3.92ZM270.05,82l.49.37a5.6,5.6,0,0,0,1.79-4l-.81,0A19.81,19.81,0,0,1,270.05,82Zm-3.81-3c.06.53,0,1.21.47,1.56a6.56,6.56,0,0,0,3.11,1.3l.48-.94A40.65,40.65,0,0,1,266.24,79Zm.67,2.11c-.1.31,0,.42.3.35C267.32,81.12,267.21,81,266.91,81.07Zm.6.32c0,.66.6,1,1.16,1.1C268.68,81.8,268.12,81.48,267.51,81.39Zm1.2.51a3.41,3.41,0,0,0,.51.73,2.9,2.9,0,0,0,1.21,0A1.87,1.87,0,0,0,268.71,81.9Z"/><path class="cls-52" d="M335.4,75.25a4.08,4.08,0,1,1-2.91,4.09A4.07,4.07,0,0,1,335.4,75.25Zm-.69.87c.25.12.49.38.79.3.85-.17,1.7-.29,2.55-.41A3.45,3.45,0,0,0,334.71,76.12Zm-1.07,1c1.39.68,2.71,1.49,4.07,2.22a3,3,0,0,0,.23-1.09,10.13,10.13,0,0,0-3.52-1.94Q334,76.75,333.64,77.17Zm2.26-.65c.29.24.56.62,1,.61.81,0,1.63-.08,2.44-.07a4.55,4.55,0,0,0-.53-.62A6.55,6.55,0,0,0,335.9,76.52Zm1.32.85a4.16,4.16,0,0,0,.94.73c.58,0,1.16,0,1.74,0l-.28-.66A6.46,6.46,0,0,0,337.22,77.37Zm-3.82.17a4.63,4.63,0,0,0-.32,1.1,18.76,18.76,0,0,0,4.07,2c.15-.3.29-.6.43-.89a19.17,19.17,0,0,0-3.31-2C334,77.67,333.7,77.39,333.4,77.54Zm4.77,1.13A20.87,20.87,0,0,1,336.82,82l.5.4A5.34,5.34,0,0,0,339,78.28C338.73,78.36,338.26,78.26,338.17,78.67Zm1.17-.42a7.94,7.94,0,0,1-1.61,4.21,3.52,3.52,0,0,0,2.3-3.94C339.87,78.3,339.56,78.34,339.34,78.25Zm-6.29.75c0,.47-.07,1.07.32,1.43a6.61,6.61,0,0,0,3,1.38c.4-.12.46-.63.67-.93A40.73,40.73,0,0,1,333.05,79Zm.62,2.1c-.08.3,0,.41.33.33Q334.14,81,333.67,81.1Zm.63.3c0,.66.56,1,1.15,1.1A1.17,1.17,0,0,0,334.3,81.4Zm1.19.48a3.57,3.57,0,0,0,.47.74,3.68,3.68,0,0,0,1.1.12C337,82,336.08,81.92,335.49,81.88Z"/><path class="cls-53" d="M268,76.12a3.3,3.3,0,0,1,3.3-.11c-.85.13-1.7.24-2.54.41C268.44,76.49,268.21,76.23,268,76.12Z"/><path class="cls-54" d="M334.71,76.12a3.43,3.43,0,0,1,3.34-.11c-.86.12-1.7.24-2.55.41C335.2,76.5,335,76.24,334.71,76.12Z"/><path class="cls-55" d="M289.43,75.84c.92-.28,1.63.48,2.19,1.08a8,8,0,0,1-2.24,0C289.39,76.58,289.41,76.21,289.43,75.84Z"/><path class="cls-56" d="M311.69,75.84l1.22,0c.07.78.13,1.55.19,2.32-.76-.39-1.7-1.23-2.54-.57s-.67,2-.51,2.95a2.13,2.13,0,0,1-1.33-1.4c-.26-.9-.29-2.22.67-2.71s1.71.29,2.42.71C311.76,76.72,311.71,76.29,311.69,75.84Zm.42,5c0,.09.1.28.14.37l.77-.3a2.54,2.54,0,0,1-.09,2.81c-.65.79-1.74.79-2.66.93-.13,1.31.75,2.4.91,3.67a22.39,22.39,0,0,0,1.52,5.86,12.89,12.89,0,0,1-1.1-.85A18.44,18.44,0,0,1,309.84,87c-.15-1.21-1.11-2.19-.92-3.47a3.68,3.68,0,0,0,2.62-.77A2.52,2.52,0,0,0,312.11,80.83Z"/><path class="cls-57" d="M321.64,76a2.63,2.63,0,0,1,1.59,2.64A4.38,4.38,0,0,1,321.64,82c-.73.66-1.51,1.24-2.25,1.89a5.47,5.47,0,0,0-3.49,1.34A4.82,4.82,0,0,1,317,83.62c1.47-1.36,3.38-2.3,4.46-4.05A4,4,0,0,0,321.64,76Zm-4.76,12.25c.19-.55.46-1.17,1.1-1.29a1.55,1.55,0,0,1,1.91,1c-.45.12-1,.11-1.33.51a1.09,1.09,0,0,0,0,1.51,9.51,9.51,0,0,1,2.32,3.56,3.42,3.42,0,0,1-.73,3.54c-1.16,1.23-3,1.28-4.58.9A4.7,4.7,0,0,1,313,96.5a6.31,6.31,0,0,0,5.24.13,3.39,3.39,0,0,0,1.48-3.93C319.26,90.94,317.89,89.7,316.88,88.29ZM297,93.19a9.5,9.5,0,0,0,5-3.68c.32.59.62,1.18,1,1.74-1.47,1.14-2.8,2.62-4.71,3a4.88,4.88,0,0,0-1.56-1,3.23,3.23,0,0,0-2.56,1.18c-.28.65-.6,1.27-.89,1.92-.08,1.23,0,2.48,0,3.71,0,.73.86,1.18.63,1.94a12.67,12.67,0,0,0-.2,2.82,4.52,4.52,0,0,0-1.51.65,1.64,1.64,0,0,1-1.08-1c.49-.24,1.14-.41,1.34-1s-.09-1.16,0-1.73a8.81,8.81,0,0,0,.16-1.62c-.23-.25-.66-.4-.65-.79-.07-1.52,0-3,0-4.56l.52-.14a2.66,2.66,0,0,1,3.14-2.42A4.8,4.8,0,0,1,297,93.19Zm5.77,7A4.37,4.37,0,0,1,306.35,98c.14.38.29.77.47,1.14a6.16,6.16,0,0,0-2.42,1.51,3.33,3.33,0,0,0-.46,1.52C303.18,101.9,302.43,101.08,302.81,100.21Zm-9.73,8.33.47-.3c.7,0,.89.58,1.05,1.15-.31.41-.6.83-.9,1.26C293,110.23,293.12,109.26,293.08,108.54Zm2.42,1.09a2.32,2.32,0,0,1,1.12-1.41,4.43,4.43,0,0,1,1.07,1.13,6.59,6.59,0,0,0-1.12,1.73A3.42,3.42,0,0,1,295.5,109.63Zm14.61.22c.25-.51.56-1.12,1.24-1.08.29.31.59.6.88.9l.1.12a7.85,7.85,0,0,0-1.19,1.5A4.92,4.92,0,0,1,310.11,109.85Z"/><path class="cls-58" d="M266.87,77.16c.25-.27.5-.54.76-.8a10.47,10.47,0,0,1,3.55,1.92l-.24,1.11C269.58,78.64,268.26,77.84,266.87,77.16ZM333.05,79a40.73,40.73,0,0,0,4,1.88c-.21.3-.27.81-.67.92a6.44,6.44,0,0,1-3-1.37C333,80.07,333.08,79.47,333.05,79Z"/><path class="cls-59" d="M269.13,76.53a7,7,0,0,1,2.84-.11,4.25,4.25,0,0,1,.6.6l-2.29.11C269.8,77.21,269.46,76.81,269.13,76.53Z"/><path class="cls-60" d="M333.64,77.17c.25-.28.52-.55.78-.81a10.13,10.13,0,0,1,3.52,1.94,3.22,3.22,0,0,1-.23,1.09C336.35,78.66,335,77.85,333.64,77.17Z"/><path class="cls-61" d="M335.9,76.52a6.51,6.51,0,0,1,2.88-.08,4,4,0,0,1,.54.62c-.81,0-1.63,0-2.44.07C336.46,77.14,336.19,76.76,335.9,76.52Z"/><path class="cls-62" d="M316.44,76.78a1.33,1.33,0,0,1,1.7.94,4.69,4.69,0,0,0-1.72,1.37A17.81,17.81,0,0,0,316.44,76.78Z"/><path class="cls-63" d="M270.44,77.37a7.37,7.37,0,0,1,2.39,0l.3.68a14.62,14.62,0,0,1-1.75,0A5.09,5.09,0,0,1,270.44,77.37Z"/><path class="cls-64" d="M289.67,77.47a4.16,4.16,0,0,1,2,.6,2.74,2.74,0,0,1-2.3.4C289.42,78.13,289.22,77.6,289.67,77.47Z"/><path class="cls-65" d="M337.22,77.37a6.46,6.46,0,0,1,2.4,0l.28.66c-.58,0-1.16.06-1.74,0A4.16,4.16,0,0,1,337.22,77.37Z"/><path class="cls-66" d="M266.33,78.62a5.18,5.18,0,0,1,.39-1.21,23,23,0,0,1,3.83,2.1c.4.28,0,.77-.07,1.13A15.35,15.35,0,0,1,266.33,78.62Zm3,17.4a1,1,0,0,1,1.54.77,1,1,0,0,1-1.49.95A1,1,0,0,1,269.29,96Zm1.62,1.76A2.23,2.23,0,0,1,273,99c-.2.55-.86.68-1.28,1s-.82.72-1.36.66c-.69-.59-.38-1.62-.28-2.39a4.87,4.87,0,0,1,1.07.74C271.07,98.6,271,98.19,270.91,97.78Z"/><path class="cls-67" d="M333.4,77.54c.3-.15.59.13.87.21a18.57,18.57,0,0,1,3.31,2c-.14.29-.28.59-.43.89a18.76,18.76,0,0,1-4.07-2A4.63,4.63,0,0,1,333.4,77.54Zm-67,21.22c0-1,1.43-1.11,2.2-1.17-.14.42-.31.82-.46,1.24.36-.23.7-.47,1.05-.72a2.74,2.74,0,0,1-.08,2.12c-.18.4-.77.32-1,0C267.6,99.71,266.92,99.34,266.43,98.76Z"/><path class="cls-68" d="M272.58,78.29c.23,0,.46.1.69.15a3.53,3.53,0,0,1-2.1,3.91A9.71,9.71,0,0,0,272.58,78.29Z"/><path class="cls-69" d="M338.17,78.67c.09-.41.57-.31.86-.39a5.3,5.3,0,0,1-1.71,4.08l-.5-.4A20.87,20.87,0,0,0,338.17,78.67Z"/><path class="cls-70" d="M339.34,78.25c.22.09.53,0,.68.27a3.5,3.5,0,0,1-2.29,3.94A7.94,7.94,0,0,0,339.34,78.25Z"/><path class="cls-71" d="M270.05,82a20.09,20.09,0,0,0,1.47-3.64l.81,0a5.6,5.6,0,0,1-1.79,4Z"/><path class="cls-72" d="M289.64,79.1a1.68,1.68,0,0,1,1.76.37,4.81,4.81,0,0,1-1.75.33C289.64,79.62,289.64,79.27,289.64,79.1Z"/><path class="cls-73" d="M266.24,79a40.65,40.65,0,0,0,4.06,1.92l-.48.94a6.56,6.56,0,0,1-3.11-1.3C266.21,80.17,266.3,79.49,266.24,79Zm71.9,18.64a3.41,3.41,0,0,1,1.94.54c.4.18.26.78-.06,1-.48.38-1,.76-1.42,1.18-.25.3-.87.31-1-.1a4.43,4.43,0,0,1-.24-1.84c.47-.22.81.31,1.21.47C338.42,98.41,338.27,98,338.14,97.6Z"/><path class="cls-74" d="M292.09,80.65a20.8,20.8,0,0,1,3,.85c.09.2.17.41.26.61-.67-.14-1.33-.25-2-.36-.07,2.06-.05,4.12,0,6.17a6.52,6.52,0,0,1-1.28.46C292.08,85.8,292.09,83.23,292.09,80.65Z"/><path class="cls-75" d="M266.91,81.07c.3-.07.41.05.3.35C266.91,81.49,266.81,81.38,266.91,81.07Z"/><path class="cls-76" d="M333.67,81.1c.31-.09.41,0,.33.33C333.69,81.51,333.59,81.4,333.67,81.1Z"/><path class="cls-77" d="M267.51,81.39c.61.09,1.17.42,1.16,1.1C268.11,82.35,267.54,82.05,267.51,81.39Z"/><path class="cls-78" d="M295.11,81.5c.57.26,1.24.76,1,1.49s-1.2.59-1.8.77a3.75,3.75,0,0,0,1.1-.83,2.53,2.53,0,0,0-.06-.82C295.29,81.91,295.2,81.7,295.11,81.5Z"/><path class="cls-79" d="M334.3,81.4a1.17,1.17,0,0,1,1.15,1.1C334.86,82.38,334.33,82.06,334.3,81.4Z"/><path class="cls-80" d="M268.71,81.9a1.87,1.87,0,0,1,1.72.76,2.9,2.9,0,0,1-1.21,0A3.41,3.41,0,0,1,268.71,81.9Z"/><path class="cls-81" d="M335.49,81.88c.59,0,1.48.11,1.57.86a3.68,3.68,0,0,1-1.1-.12A3.57,3.57,0,0,1,335.49,81.88Z"/><path class="cls-82" d="M297.48,84.36a5,5,0,0,0,1.5-1.31c.19.32.38.65.56,1-.94.59-1.93,1.1-2.86,1.69-.4-.35-.8-.71-1.23-1A4.8,4.8,0,0,0,297.48,84.36Z"/><path class="cls-83" d="M317.29,86.57a2.12,2.12,0,0,1,3.31.13c.63.72.32,1.72.18,2.57a3.24,3.24,0,0,1-.87.44,16.45,16.45,0,0,0,0-1.72A1.55,1.55,0,0,0,318,87c-.64.12-.91.74-1.1,1.29A2.41,2.41,0,0,1,317.29,86.57Zm-27.58,5.81.87-.22c-.08.5-.16,1-.23,1.51a12,12,0,0,1,1.54-.6c0,.52.09,1.05.12,1.57l-.66-.7c-.1,2,0,4,0,5.92,0,.32,0,.76-.33.92a6,6,0,0,1-1.39.25c0-.32,0-.64-.05-1l.79-.29c.12-1.57,0-3.15.06-4.73C290.49,94.09,289.89,93.29,289.71,92.38Z"/><path class="cls-84" d="M288.52,91.24a7.27,7.27,0,0,1,1.24-.18,5.15,5.15,0,0,0-.66,1.65L289,93A10.13,10.13,0,0,0,288.52,91.24Z"/><path class="cls-85" d="M267.81,93.66c.2-.42.38-1,.94-1,.84,0,1.68.14,2.53.15.61,0,.81.66,1,1.13.46.11,1.12.18,1.27.73.18.81.41,1.61.62,2.41.13.57-.37.94-.78,1.2,0,.53.19,1.23-.35,1.56s-1.34.83-2,1.26c-.5.31-1,0-1.44-.31-.46.14-1,.44-1.44.18s-.86-.78-1.33-1.1c-.31-.27-.73-.47-.87-.88a3.16,3.16,0,0,1,.13-1.18c-.37-.34-.84-.8-.59-1.36.32-.72.6-1.47.87-2.21C266.6,93.61,267.29,93.64,267.81,93.66Zm.59-.25c-.12.75.46,1.39.87,2,.53.17.43-.73.67-1a7.63,7.63,0,0,1,.35,1.15,2.56,2.56,0,0,0,1.28-1.37.54.54,0,0,0-.24-.83,10.76,10.76,0,0,0-1.88-.15C269.09,93.16,268.61,93,268.4,93.41Zm-2.13,2.44c-.13.4-.47.82-.22,1.24.7.47,1.55,0,2.29-.14a2.4,2.4,0,0,0-.75-1c.37,0,.83.22,1.12-.09A2.92,2.92,0,0,0,267.22,94C266.64,94.47,266.57,95.24,266.27,95.85Zm4.78.33,1.21,0c-.27.31-1.05.42-.84.94a4.35,4.35,0,0,0,1.67.56.54.54,0,0,0,.57-.67c-.2-.74-.38-1.49-.58-2.23a.53.53,0,0,0-.81-.25A2.81,2.81,0,0,0,271.05,96.18ZM269.29,96a1,1,0,0,0,0,1.72,1,1,0,0,0,1.49-.95A1,1,0,0,0,269.29,96Zm-2.86,2.74c.49.58,1.17,1,1.7,1.5.24.29.83.38,1,0a2.71,2.71,0,0,0,.08-2.11c-.35.24-.69.49-1.05.71.15-.41.32-.82.46-1.24C267.86,97.65,266.42,97.74,266.43,98.76Zm4.48-1c.07.41.16.82.24,1.23a4.87,4.87,0,0,0-1.07-.74c-.1.77-.41,1.8.28,2.39.54.06.92-.43,1.36-.66s1.08-.46,1.28-1A2.23,2.23,0,0,0,270.91,97.78Z"/><path class="cls-86" d="M335.12,92.88a2.94,2.94,0,0,1,1.29-.15,16.56,16.56,0,0,1,1.73-.09c.48.08.63.61.8,1,.51,0,1.16,0,1.42.51.29.75.56,1.51.88,2.24.27.56-.18,1.06-.6,1.37.12.52.37,1.21-.14,1.61s-1.21,1-1.8,1.48-1.1.08-1.55-.2a3.16,3.16,0,0,1-.76.51c-.6.11-1.05-.36-1.5-.65s-.92-.51-1.33-.84-.22-.91-.19-1.36c-.39-.32-.88-.69-.78-1.25.2-.81.43-1.6.61-2.42.14-.61.86-.63,1.36-.75C334.69,93.53,334.73,93.05,335.12,92.88Zm1.08.33c-.37,0-.89,0-1.07.37a2.55,2.55,0,0,0,1.3,2c.13-.4.23-.82.34-1.23.15.35.28.72.43,1.06.43.07.56-.47.78-.73.27-.43.66-1.16.09-1.52C337.45,93.11,336.83,93.21,336.2,93.21Zm2.92,1A3.38,3.38,0,0,0,338,96c.43,0,.85,0,1.28,0-.28.32-.91.48-.85,1,.76.22,1.89.76,2.43-.13-.34-.74-.61-1.5-.91-2.26A.53.53,0,0,0,339.12,94.25Zm-5.52.84c-.09.86-.65,1.67-.43,2.55a3.15,3.15,0,0,0,2.37-.64,10.1,10.1,0,0,0-1.08-.77c.44,0,.88,0,1.32-.06a3.21,3.21,0,0,0-1.35-1.62C334,94.3,333.61,94.68,333.6,95.09Zm2.89.87a1,1,0,1,0,1.43,1A1,1,0,0,0,336.49,96Zm-1.23,1.88c-.63.23-1.49.51-1.49,1.33.7.48,1.42.93,2.12,1.4a.54.54,0,0,0,.83-.3,5,5,0,0,0-.05-2,7.67,7.67,0,0,0-1.1.76c.1-.4.22-.78.34-1.17A.91.91,0,0,0,335.26,97.84Zm2.88-.24c.13.41.28.81.42,1.22-.4-.16-.74-.69-1.21-.47a4.43,4.43,0,0,0,.24,1.84c.14.41.76.4,1,.1.45-.42.94-.8,1.42-1.18.32-.19.46-.79.06-1A3.41,3.41,0,0,0,338.14,97.6Z"/><path class="cls-87" d="M268.4,93.41c.21-.4.69-.25,1.05-.26a10.76,10.76,0,0,1,1.88.15.54.54,0,0,1,.24.83,2.56,2.56,0,0,1-1.28,1.37,7.63,7.63,0,0,0-.35-1.15c-.24.3-.14,1.2-.67,1C268.86,94.8,268.28,94.17,268.4,93.41Zm-2.13,2.44c.3-.61.37-1.38,1-1.82a2.92,2.92,0,0,1,1.49,1.82c-.29.31-.75.05-1.12.09a2.4,2.4,0,0,1,.75,1c-.74.13-1.59.61-2.29.14C265.8,96.67,266.14,96.25,266.27,95.85Zm72.85-1.6a.53.53,0,0,1,.85.29c.3.76.57,1.52.91,2.26-.54.89-1.67.35-2.44.13-.05-.5.58-.66.86-1-.43,0-.85,0-1.28,0A3.32,3.32,0,0,1,339.12,94.25Zm-68.07,1.93a2.81,2.81,0,0,1,1.22-1.61.53.53,0,0,1,.81.25c.2.74.38,1.49.58,2.23a.54.54,0,0,1-.57.67,4.19,4.19,0,0,1-1.67-.56c-.21-.52.57-.63.84-.94Zm62.55-1.09c0-.41.44-.79.83-.54a3.21,3.21,0,0,1,1.35,1.62c-.44,0-.89,0-1.33.06a9.3,9.3,0,0,1,1.09.77,3.15,3.15,0,0,1-2.37.64C333,96.76,333.5,96,333.6,95.09Zm2.89.87a1,1,0,0,1,1.43,1,1,1,0,1,1-1.43-1Zm-1.23,1.88a.91.91,0,0,1,.65,0c-.12.39-.24.77-.34,1.17a7.67,7.67,0,0,1,1.1-.76,5,5,0,0,1,.05,2,.55.55,0,0,1-.83.3c-.7-.47-1.42-.92-2.12-1.4C333.77,98.35,334.63,98.07,335.26,97.84Z"/><path class="cls-88" d="M336.2,93.21c.63,0,1.25-.1,1.87-.06.57.36.18,1.09-.09,1.51s-.35.81-.78.74c-.15-.34-.28-.71-.43-1.06-.11.41-.21.83-.34,1.23a2.55,2.55,0,0,1-1.3-2C335.31,93.16,335.83,93.23,336.2,93.21Z"/><path class="cls-89" d="M291.35,93.94l.66.7v.19c.06,1.52,0,3,0,4.56,0,.39.42.54.65.79a9.77,9.77,0,0,1-.16,1.62c-.12.57.08,1.16,0,1.73s-.85.75-1.35,1a2.48,2.48,0,0,1-1.48-1.23,5.2,5.2,0,0,0,1.45.3,1,1,0,0,0,.3-1.59,5.13,5.13,0,0,0-1.86-.36c0-.16,0-.46,0-.61a6,6,0,0,0,1.39-.25c.36-.16.29-.6.33-.92C291.34,97.89,291.25,95.91,291.35,93.94Z"/><path class="cls-90" d="M311.06,95.37c.48.27.94.56,1.4.86a5.56,5.56,0,0,0,.67,2.53A5,5,0,0,1,311.06,95.37Z"/><path class="cls-91" d="M315.88,100.46c.74,0,1.48-.07,2.21-.13a9.24,9.24,0,0,0-2.32,7,8.3,8.3,0,0,1,0,2.17c-.29.52-1,.48-1.49.69l-.51.87-1.33-1.08c.25-.36.4-.9.92-1s1.27-.32,1.19-1C314.41,105.41,314.33,102.62,315.88,100.46Z"/><path class="cls-92" d="M289.57,101.64a5.13,5.13,0,0,1,1.86.36,1,1,0,0,1-.3,1.59,5.2,5.2,0,0,1-1.45-.3,2.38,2.38,0,0,1,.49-1.4Z"/><path class="cls-93" d="M309.48,101.74l1,.34c.07.27.14.55.2.82A3.57,3.57,0,0,1,309.48,101.74Z"/><path class="cls-94" d="M296.62,108.22c.45,0,.89,0,1.34,0,.13.53.26,1.07.4,1.6a5.35,5.35,0,0,1-.67-.47A4.43,4.43,0,0,0,296.62,108.22Z"/><path class="cls-95" d="M308.32,108.74c.41-.06.83-.1,1.25-.13,0,.54.05,1.07.08,1.61l-.24-.43-.5-.94Z"/><path class="cls-96" d="M311.35,108.77l.6.07c.09.28.18.56.28.83C311.94,109.37,311.64,109.08,311.35,108.77Z"/><path class="cls-97" d="M326.79,110.15c.08-.46,1.16-.46,1.21,0C327.6,110.17,327.19,110.18,326.79,110.15Z"/><path class="cls-98" d="M326.77,110.48a1.16,1.16,0,0,1,1.41,0,11.54,11.54,0,0,1,.84,1.11c.42.33,1.13.48,1.18,1.11.21,1.36-1.22,2.1-2,3-1.12-1.1-2.28-2.17-3.3-3.35A22.11,22.11,0,0,1,326.77,110.48Zm-.63,1.4a5.81,5.81,0,0,0,1.1,1.06c.27-.38.71-.91.3-1.34S326.53,111.59,326.14,111.88Zm2,1c-.09.1-.28.3-.37.41l-.16-.12a2.83,2.83,0,0,0,1,1.18c.29-.35.78-.8.41-1.28C328.79,112.72,328.43,112.83,328.14,112.84Zm-51.57-.09c.83-.74,1.59-1.54,2.41-2.27a12.08,12.08,0,0,1,2,2l-.51.5c-.39-.34-.77-.7-1.16-1l-.7.71c.32.35.65.71,1,1.05l-.38.64c-.42-.34-.84-.7-1.25-1-.5.5-1,1-1.49,1.52l-.93-1C275.87,113.45,276.21,113.09,276.57,112.75Zm17.91,7a6.72,6.72,0,0,1,2.68.75c.55.43.4,1.21.24,1.8l-.08.28c-.32.73-.13,1.82-1,2.19a6.22,6.22,0,0,1-2.84-.47C293.67,122.73,294.16,121.24,294.48,119.72Zm1,1c0,.41-.07.81-.11,1.22.33-.09,1,.07.95-.46C296.42,120.94,295.86,120.7,295.46,120.67Zm-.39,1.83a5.7,5.7,0,0,0-.29,1.41c.4,0,.92.1,1.14-.34a3.11,3.11,0,0,0-.09-.86Z"/><path class="cls-99" d="M326.14,111.88c.39-.29,1-.79,1.4-.28s0,1-.29,1.34A5.58,5.58,0,0,1,326.14,111.88Zm.4,0a5.79,5.79,0,0,0,.69.71l.29-.5-.27-.52Z"/><path class="cls-100" d="M326.54,111.88l.71-.32.27.52-.29.5A6.51,6.51,0,0,1,326.54,111.88Z"/><path class="cls-101" d="M323.9,112.88l.59-.56,1.07,1.14a3.91,3.91,0,0,0,.34,1.77A18.67,18.67,0,0,0,323.9,112.88Z"/><path class="cls-102" d="M328.14,112.84c.29,0,.65-.12.84.19.37.48-.12.93-.41,1.28a2.83,2.83,0,0,1-1-1.18l.16.12c.29.2.57.42.85.63l.24-.65C328.62,113.1,328.38,113,328.14,112.84Z"/><path class="cls-103" d="M327.77,113.25c.09-.11.28-.31.37-.41.24.12.48.26.72.39l-.24.65C328.34,113.67,328.06,113.45,327.77,113.25Z"/><path class="cls-104" d="M323.42,113.8l.6-.58a23.42,23.42,0,0,1,2,2.71,1.67,1.67,0,0,1-.86,2.38,3.56,3.56,0,0,1-1.86-.06l-.16-.29a32.17,32.17,0,0,0-1.86-2.64l.95-.74c.76.84,1.31,1.84,2.09,2.66.43.49,1.32-.12,1-.7C324.84,115.56,324,114.74,323.42,113.8Z"/><path class="cls-105" d="M280.82,114a2.68,2.68,0,0,1,2.1-.21,2.58,2.58,0,0,1,1.56,1.57,3.16,3.16,0,0,1-1.25,3.06,2.68,2.68,0,0,1-3.72-1.36A3.19,3.19,0,0,1,280.82,114Zm1.29.77c-1,.39-2,2.09-.85,2.85a2,2,0,0,0,2-2.41A1,1,0,0,0,282.11,114.79Z"/><path class="cls-106" d="M282.3,115a.72.72,0,0,1,.82,1,2.38,2.38,0,0,1-1.33,1.43.71.71,0,0,1-.85-.92C281.2,115.87,281.6,115.14,282.3,115Z"/><path class="cls-107" d="M284.48,115.38c0-.1.1-.29.14-.38a4,4,0,0,1,.32,1.8,3.06,3.06,0,0,1,.94-.26H286a4,4,0,0,0-1.59,1.74,2.89,2.89,0,0,0,.37,2.56,2.57,2.57,0,0,1-1-2.32l-.62-.09A3.16,3.16,0,0,0,284.48,115.38Z"/><path class="cls-108" d="M326.37,116.12c.46.1.46,1.19,0,1.27C326.37,117,326.37,116.55,326.37,116.12Z"/><path class="cls-109" d="M318.15,116.91l1-.48c.54.87,1,1.77,1.54,2.67.15.18.21.5.46.56a12.94,12.94,0,0,0,1.38-.72l.36.73c-.79.48-1.59,1-2.42,1.39A32.11,32.11,0,0,1,318.15,116.91Zm-27.86,1.41a29.46,29.46,0,0,1,3,1.05c0,.23-.09.47-.14.71l-1.07-.22c-.45,1.2-.85,2.42-1.34,3.6l-1.09-.44c.28-.88.59-1.76.9-2.63l.25-.63c0-.06.06-.19.09-.26-.3-.23-.62-.44-.93-.65C290,118.72,290.2,118.45,290.29,118.32Z"/><path class="cls-110" d="M286,116.55c.95.09,2.09.15,2.67,1,.74,1,.34,2.25-.16,3.22a2.62,2.62,0,0,1-3.73,0,2.86,2.86,0,0,1-.36-2.56A4,4,0,0,1,286,116.55Zm.44,1.29c-.72.56-1.31,1.87-.51,2.59,1.14.39,2-1,1.86-2C288,117.71,286.92,117.34,286.48,117.84Zm29.35.16c.67-.23,1.33.17,2,.38-.12.21-.24.42-.35.64-.64,0-1.46-.33-1.94.24s-.17,1.59.25,2.2,1,.33,1.55.33a3.37,3.37,0,0,0,.21-.31c.18-.26.35-.52.52-.78l.68.06a2.61,2.61,0,0,1-1.16,1.87,3.12,3.12,0,0,1-2.67-.06l-.45-.42a4.53,4.53,0,0,1-.53-1.78A2.35,2.35,0,0,1,315.83,118Z"/><path class="cls-111" d="M286.48,117.84c.43-.5,1.47-.13,1.35.57.17,1-.73,2.41-1.86,2C285.17,119.71,285.76,118.4,286.48,117.84Z"/><path class="cls-112" d="M289.11,117.87c.32.09.64.17,1,.23l-.32,1,1,.65c-.09.21-.17.42-.25.63s-.25.35-.37.53c0-.42,0-.83.07-1.24-.47-.3-.86,0-1.14.4A3.7,3.7,0,0,0,289.11,117.87Z"/><path class="cls-113" d="M290.44,118.09a2.87,2.87,0,0,1,2.42.87C292,118.73,291.24,118.39,290.44,118.09Z"/><path class="cls-114" d="M292.29,120.23a5.11,5.11,0,0,1,.95.1l.13,0a3.07,3.07,0,0,0-1.67,1.08A2.76,2.76,0,0,1,292.29,120.23Z"/><path class="cls-115" d="M307,120.58l1.12-.23c.3,1.28.36,2.61.69,3.88.52-.07,1-.16,1.55-.25l.18.74a24.34,24.34,0,0,1-2.82.45Q307.33,122.88,307,120.58Zm-6.65,0a36.06,36.06,0,0,1,1.58,4.95q-.57,0-1.14-.09c-.13-.35-.26-.7-.38-1.05q-.56-.1-1.11-.18l-.54,1.06-.68,0A39.42,39.42,0,0,1,300.35,120.54Zm-.46,2.5c-.37.1-.26.74.13.66S300.23,123,299.89,123Z"/><path class="cls-116" d="M303.15,120.57c.49,0,1,0,1.45,0a33,33,0,0,1,.17,3.85l1.69,0c0,.35.05.7.08,1.06h-.26c0-.19-.14-.55-.2-.73l-1.56-.11c0-1.28-.06-2.55-.11-3.83h-1.05c0,1,0,2,0,3l-.2.1c0-.44,0-.89-.05-1.34Z"/><path class="cls-117" d="M293.6,122.41a1.87,1.87,0,0,1,.38-1.64A15.57,15.57,0,0,1,293.6,122.41Z"/><path class="cls-118" d="M303.36,120.82h1.05c0,1.28.07,2.55.11,3.83l1.56.11.2.73c-.48,0-.95,0-1.43,0a5.63,5.63,0,0,0-1.41-.14c0-.51,0-1,0-1.52C303.4,122.84,303.36,121.83,303.36,120.82Z"/><path class="cls-119" d="M308.48,120.81c.4,0,.31.54.38.82.07.65.12,1.29.25,1.93a6.2,6.2,0,0,1,1.49.1c-.53.12-1.07.21-1.6.29A22.11,22.11,0,0,1,308.48,120.81Z"/><path class="cls-120" d="M295.07,122.5l.76.2a3.22,3.22,0,0,1,.09.87c-.21.44-.74.31-1.13.34A5.27,5.27,0,0,1,295.07,122.5Zm.2.25c-.09.31-.16.62-.24.94.46.1.72-.24.79-.65Z"/><path class="cls-121" d="M295.27,122.75l.55.29c-.07.41-.33.75-.79.65C295.11,123.37,295.18,123.06,295.27,122.75Z"/><path class="cls-122" d="M299.88,123c.35-.05.49.58.14.66S299.52,123.14,299.88,123Z"/><path class="cls-123" d="M293.2,124.5a1,1,0,0,1,.77.17C293.81,125,293.16,124.88,293.2,124.5Z"/><path class="cls-124" d="M294.84,124.92c.6,0,1.19,0,1.79,0A1.33,1.33,0,0,1,294.84,124.92Z"/><path class="cls-125" d="M307.45,125.43c.88-.16,1.77-.22,2.66-.32a4.6,4.6,0,0,1-2.54.48Z"/><path class="cls-126" d="M297.8,125.38a4.44,4.44,0,0,1,1,0C298.83,125.8,297.86,125.81,297.8,125.38Z"/><path class="cls-127" d="M303.44,125.37a5.63,5.63,0,0,1,1.41.14C304.43,125.64,303.59,126,303.44,125.37Z"/></g></g></svg>